<svg viewBox="0 0 44 44" fill="none" xmlns="http://www.w3.org/2000/svg">
<path d="M40 2L36.7203 38.7674L21.978 42.8574L7.27622 38.7732L4 2H40Z" fill="#E44D26"/>
<path d="M22 39.7312L33.9125 36.4262L36.7152 5.00677H22V39.7312Z" fill="#F16529"/>
<path d="M15.6244 14.027H22V9.51691H21.9844H10.699L10.8069 10.7269L11.9146 23.1555H22V18.6454H16.0363L15.6244 14.027Z" fill="#EBEBEB"/>
<path d="M16.6401 25.4106H14.2011H12.116L12.7474 32.4921L21.9793 35.0567L22 35.051V30.3586L21.9802 30.3639L16.961 29.0076L16.6401 25.4106Z" fill="#EBEBEB"/>
<path d="M21.9845 23.1554H27.5341L27.011 29.0046L21.9845 30.3623V35.0545L31.2237 32.492L31.2915 31.73L32.3505 19.8565L32.4605 18.6454H31.246H21.9845V23.1554Z" fill="white"/>
<path d="M21.9845 14.016V14.027H32.8561H32.8706L32.961 13.0133L33.1663 10.7269L33.2741 9.51691H21.9845V12.3181V14.016Z" fill="white"/>
</svg>
