<svg viewBox="0 0 44 44" fill="none" xmlns="http://www.w3.org/2000/svg">
<path d="M41 3H3V41H41V3Z" fill="#F7DF1E"/>
<path d="M28.5263 32.6877C29.2918 33.9375 30.2876 34.856 32.0489 34.856C33.5283 34.856 34.4735 34.1165 34.4735 33.0947C34.4735 31.8703 33.5024 31.4366 31.8739 30.7243L30.9811 30.3412C28.4045 29.2434 26.6926 27.8682 26.6926 24.961C26.6926 22.2829 28.7332 20.2441 31.9222 20.2441C34.1925 20.2441 35.8246 21.0343 37.0009 23.1032L34.2201 24.8886C33.6079 23.7908 32.9476 23.3583 31.9222 23.3583C30.8761 23.3583 30.2133 24.0218 30.2133 24.8886C30.2133 25.9598 30.8768 26.3934 32.4088 27.0569L33.3016 27.4395C36.3355 28.7405 38.0484 30.0667 38.0484 33.0489C38.0484 36.2639 35.5231 38.0252 32.1314 38.0252C28.8151 38.0252 26.6727 36.4448 25.6243 34.3734L28.5263 32.6877ZM15.912 32.997C16.473 33.9923 16.9833 34.8336 18.2101 34.8336C19.3833 34.8336 20.1234 34.3747 20.1234 32.5899V20.448H23.6942V32.6381C23.6942 36.3357 21.5264 38.0184 18.3621 38.0184C15.5031 38.0184 13.8474 36.539 13.0053 34.7568L15.912 32.997Z" fill="black"/>
</svg>
