<svg viewBox="0 0 44 44" fill="none" xmlns="http://www.w3.org/2000/svg">
<g clip-path="url(#clip0)">
<path d="M37.8403 9.68707L24.584 1.81207C23.0008 0.868713 21.0485 0.868713 19.4653 1.81207L6.209 9.68707C4.6258 10.6222 3.64963 12.3613 3.64963 14.2398V29.9816C3.64963 31.8601 4.6258 33.5992 6.209 34.5343L19.4653 42.4011C20.2528 42.8687 21.1387 43.1066 22.0246 43.1066C22.9106 43.1066 23.7883 42.8687 24.584 42.4011L37.8403 34.5343C39.4235 33.591 40.3996 31.8601 40.3996 29.9816V14.2398C40.3996 12.3613 39.4235 10.6222 37.8403 9.68707Z" fill="white"/>
<path d="M37.8403 9.68753L24.584 1.81252C23.7965 1.34495 22.9106 1.10706 22.0246 1.10706C21.1387 1.10706 20.261 1.34495 19.4653 1.81252L6.209 9.68753C4.6258 10.6227 3.64963 12.3617 3.64963 14.2403V29.9821C3.64963 31.8606 4.6258 33.5996 6.209 34.5348L19.4653 42.4016C20.2528 42.8692 21.1387 43.1071 22.0246 43.1071C22.9106 43.1071 23.7883 42.8692 24.584 42.4016L37.8403 34.5348C39.4235 33.5914 40.3996 31.8606 40.3996 29.9821V14.2403C40.3996 12.3617 39.4235 10.6227 37.8403 9.68753ZM19.9328 41.5977L6.67658 33.7309C5.38049 32.9598 4.57658 31.5242 4.57658 29.9821V14.2403C4.57658 12.6981 5.38049 11.2625 6.67658 10.4914L19.9328 2.62463C20.5727 2.24729 21.2945 2.05042 22.0246 2.05042C22.7547 2.05042 23.4848 2.24729 24.1164 2.62463L37.3727 10.4914C38.4637 11.1395 39.202 12.2633 39.4071 13.5266C38.9641 12.5914 37.9797 12.3289 36.8231 13.0098L24.2805 20.7617C22.7137 21.6723 21.5653 22.7059 21.5653 24.5844V40.0391C21.5653 41.1711 22.0164 41.9012 22.7219 42.1145C22.4922 42.1555 22.2625 42.1801 22.0246 42.1801C21.2945 42.1719 20.5645 41.975 19.9328 41.5977Z" fill="#283037"/>
<path d="M34.3703 31.4992L31.0645 33.4761C30.9743 33.5253 30.9086 33.5828 30.9086 33.6894V34.5507C30.9086 34.6574 30.9825 34.6984 31.0645 34.6492L34.4196 32.6148C34.5098 32.5656 34.518 32.4671 34.518 32.3605V31.5976C34.5262 31.491 34.4524 31.45 34.3703 31.4992Z" fill="#4DA825"/>
<path d="M27.3403 24.2313C27.4469 24.1738 27.5371 24.2477 27.5371 24.3871L27.5453 25.5274C28.0211 25.3387 28.4395 25.2895 28.8168 25.3715C28.8988 25.3961 28.9317 25.5027 28.8988 25.634L28.6445 26.643C28.6281 26.7168 28.5789 26.7988 28.5297 26.8481C28.5051 26.8727 28.4887 26.8891 28.4641 26.8973C28.4313 26.9137 28.3985 26.9219 28.3656 26.9137C28.1934 26.8727 27.7832 26.7824 27.1434 27.1106C26.4707 27.4551 26.2328 28.0375 26.241 28.4723C26.2492 28.9891 26.5117 29.1531 27.4305 29.1613C28.6528 29.1777 29.186 29.7192 29.1942 30.9496C29.2106 32.1637 28.5625 33.4598 27.5699 34.2637L27.5945 35.3957C27.5945 35.5352 27.5043 35.691 27.3977 35.7402L26.725 36.1258C26.6184 36.1832 26.5281 36.1176 26.5281 35.9781L26.5199 34.8625C25.9457 35.1004 25.3633 35.1578 24.9942 35.0102C24.9203 34.9856 24.8957 34.8789 24.9203 34.7641L25.1664 33.7387C25.1828 33.6566 25.232 33.5746 25.2895 33.5254C25.3141 33.509 25.3305 33.4926 25.3551 33.4762C25.3961 33.4598 25.4289 33.4516 25.4617 33.468C25.8637 33.5992 26.3723 33.5418 26.8645 33.2875C27.4879 32.9676 27.9063 32.3359 27.8981 31.6961C27.8899 31.1219 27.5781 30.884 26.8235 30.8758C25.8637 30.8758 24.9613 30.6871 24.9449 29.268C24.9367 28.1031 25.5438 26.8891 26.5035 26.118L26.4953 24.9777C26.4953 24.8383 26.5774 24.6824 26.6922 24.625L27.3403 24.2313Z" fill="white"/>
</g>
<defs>
<clipPath id="clip0">
<rect x="1" y="1" width="42" height="42" fill="white"/>
</clipPath>
</defs>
</svg>
