<svg viewBox="0 0 44 44" fill="none" xmlns="http://www.w3.org/2000/svg"><path d="M22.04 43L7.289 38.901 4 2h36.126l-3.291 36.896L22.04 43z" fill="#264DE4"/><path d="M34.017 36.546l2.812-31.529H22.063v34.846l11.954-3.317z" fill="#2965F1"/><path d="M11.537 18.703l.405 4.526h10.12v-4.526H11.538zm-.815-9.16l.412 4.526h10.929V9.543H10.722zm11.341 20.914l-.02.006-5.037-1.361-.322-3.61h-4.54l.634 7.106 9.264 2.574.02-.006v-4.708z" fill="#EBEBEB"/><path d="M32.56 18.703l.816-9.16H22.047v4.526h6.373l-.412 4.634h-5.96v4.526h5.568l-.525 5.87-5.044 1.362v4.709l9.272-2.572.068-.764 1.062-11.915.11-1.216z" fill="#fff"/></svg>