<svg viewBox="0 0 23 17" fill="none" xmlns="http://www.w3.org/2000/svg"><path d="M22.776 6.24c-.064-.053-.64-.49-1.877-.49-.32 0-.651.032-.971.085-.235-1.632-1.59-2.421-1.643-2.464l-.33-.192-.214.31c-.267.415-.47.885-.587 1.365-.224.928-.085 1.802.384 2.55-.565.32-1.482.394-1.674.404H.716a.715.715 0 00-.715.715 10.794 10.794 0 00.662 3.894c.522 1.365 1.301 2.379 2.304 2.997 1.13.694 2.976 1.088 5.056 1.088.939 0 1.878-.085 2.806-.256a11.577 11.577 0 003.67-1.333 10.044 10.044 0 002.495-2.048c1.206-1.355 1.92-2.87 2.443-4.214h.213c1.313 0 2.123-.523 2.571-.97a2.84 2.84 0 00.683-1.003L23 6.4l-.224-.16z" fill="#0091E2"/><path d="M22.776 6.24c-.064-.053-.64-.49-1.877-.49-.32 0-.651.032-.971.085-.235-1.632-1.59-2.421-1.643-2.464l-.33-.192-.214.31c-.267.415-.47.885-.587 1.365-.224.928-.085 1.802.384 2.55-.565.32-1.482.394-1.674.404H.716a.715.715 0 00-.715.715 10.794 10.794 0 00.662 3.894c.522 1.365 1.301 2.379 2.304 2.997 1.13.694 2.976 1.088 5.056 1.088.939 0 1.878-.085 2.806-.256a11.577 11.577 0 003.67-1.333 10.044 10.044 0 002.495-2.048c1.206-1.355 1.92-2.87 2.443-4.214h.213c1.313 0 2.123-.523 2.571-.97a2.84 2.84 0 00.683-1.003L23 6.4l-.224-.16z" fill="#0091E2"/><path d="M2.124 7.371h2.027a.18.18 0 00.181-.181V5.376a.18.18 0 00-.181-.181H2.124a.18.18 0 00-.181.181V7.19c.01.106.085.181.181.181zm2.795 0h2.027a.18.18 0 00.181-.181V5.376a.18.18 0 00-.181-.181H4.919a.18.18 0 00-.181.181V7.19c.01.106.085.181.181.181zm2.848 0h2.027a.18.18 0 00.181-.181V5.376a.18.18 0 00-.181-.181H7.767a.18.18 0 00-.181.181V7.19c0 .106.074.181.181.181zm2.806 0h2.026a.18.18 0 00.182-.181V5.376a.18.18 0 00-.182-.181h-2.026a.18.18 0 00-.182.181V7.19a.18.18 0 00.182.181zM4.919 4.779h2.027a.187.187 0 00.181-.181V2.784a.18.18 0 00-.181-.181H4.919a.18.18 0 00-.181.181v1.814c.01.096.085.18.181.18zm2.848 0h2.027a.187.187 0 00.181-.181V2.784a.18.18 0 00-.181-.181H7.767a.18.18 0 00-.181.181v1.814a.18.18 0 00.181.18zm2.806 0h2.026a.187.187 0 00.182-.181V2.784a.187.187 0 00-.182-.181h-2.026a.18.18 0 00-.182.181v1.814c0 .096.086.18.182.18zm0-2.603h2.026a.18.18 0 00.182-.181V.18a.187.187 0 00-.182-.18h-2.026a.18.18 0 00-.182.181v1.814c0 .096.086.181.182.181zM13.4 7.371h2.026a.18.18 0 00.182-.181V5.376a.18.18 0 00-.182-.181H13.4a.18.18 0 00-.18.181V7.19c.01.106.085.181.18.181z" fill="#0091E2"/></svg>