<svg viewBox="0 0 44 44" fill="none" xmlns="http://www.w3.org/2000/svg"><path d="M40 2l-3.28 36.767-14.742 4.09-14.702-4.084L4 2h36z" fill="#E44D26"/><path d="M22 39.731l11.913-3.305 2.802-31.42H22v34.725z" fill="#F16529"/><path d="M15.624 14.027H22v-4.51H10.699l.108 1.21 1.108 12.428H22v-4.51h-5.964l-.412-4.618zM16.64 25.41h-4.524l.631 7.082 9.232 2.565.021-.006v-4.692l-.02.005-5.019-1.356-.32-3.597z" fill="#EBEBEB"/><path d="M21.985 23.155h5.55l-.524 5.85-5.026 1.357v4.692l9.239-2.562.067-.762 1.06-11.873.11-1.212H21.985v4.51zm0-9.139v.011H32.87l.09-1.014.205-2.286.108-1.21h-11.29v4.499z" fill="#fff"/></svg>