<svg width="44" height="44" fill="none" xmlns="http://www.w3.org/2000/svg"><path fill="#fff" d="M0 0h44v44H0z"/><path stroke="#000" d="M0 0h44v44H0z"/><g clip-path="url(#clip0)"><path d="M37.142 24.392a8.574 8.574 0 00-3.803.896c-.391-.787-.782-1.489-.852-2.003-.076-.6-.168-.966-.076-1.683.092-.717.506-1.738.498-1.816-.007-.078-.092-.445-.935-.452-.843-.008-1.572.163-1.656.39a9.46 9.46 0 00-.353 1.27c-.145.779-1.687 3.561-2.568 5.019-.284-.57-.53-1.068-.583-1.466-.077-.6-.169-.966-.077-1.683.092-.717.506-1.738.499-1.816-.008-.078-.092-.444-.936-.452-.843-.008-1.571.164-1.656.39-.084.226-.176.756-.352 1.27-.177.515-2.224 5.16-2.76 6.36a36.322 36.322 0 01-.683 1.442s-.008.023-.03.062c-.146.288-.23.444-.23.444v.008c-.116.21-.238.405-.3.405-.046 0-.13-.56.016-1.325.306-1.613 1.035-4.123 1.027-4.208 0-.047.138-.483-.475-.71-.598-.226-.813.149-.867.149-.053 0-.092.132-.092.132s.667-2.821-1.272-2.821c-1.212 0-2.883 1.348-3.711 2.564-.522.288-1.633.904-2.822 1.567-.452.257-.92.514-1.357.755-.03-.03-.061-.07-.092-.1-2.346-2.55-6.685-4.35-6.501-7.771.069-1.247.49-4.52 8.334-8.495 6.455-3.234 11.592-2.338 12.482-.35 1.272 2.836-2.753 8.105-9.423 8.868-2.546.289-3.88-.709-4.217-1.083-.353-.39-.406-.413-.537-.335-.214.117-.076.468 0 .67.2.53 1.02 1.465 2.408 1.925 1.226.405 4.209.632 7.82-.787 4.04-1.59 7.2-6.009 6.272-9.71-.928-3.757-7.062-4.996-12.866-2.9-3.45 1.247-7.191 3.211-9.882 5.767-3.198 3.04-3.704 5.682-3.497 6.788.744 3.928 6.073 6.485 8.204 8.378-.107.063-.207.117-.291.164-1.066.538-5.13 2.697-6.141 4.98-1.15 2.587.184 4.442 1.065 4.692 2.737.771 5.551-.616 7.062-2.907 1.51-2.291 1.326-5.269.628-6.632a.162.162 0 00-.03-.047l.835-.499a40.686 40.686 0 011.541-.88c-.26.724-.452 1.59-.544 2.836-.115 1.465.475 3.367 1.25 4.115.345.327.751.335 1.012.335.904 0 1.31-.763 1.763-1.667.552-1.107 1.05-2.393 1.05-2.393s-.62 3.476 1.066 3.476c.614 0 1.235-.81 1.51-1.224v.008s.016-.023.047-.078l.1-.163v-.016c.245-.437.797-1.426 1.617-3.07 1.058-2.12 2.078-4.77 2.078-4.77s.092.646.406 1.722c.184.631.568 1.325.874 1.995-.245.35-.398.546-.398.546l.007.008c-.199.264-.414.553-.651.833-.836 1.014-1.833 2.175-1.97 2.51-.162.397-.124.686.183.92.223.17.621.194 1.028.17.75-.054 1.28-.24 1.54-.358a5.145 5.145 0 001.327-.709c.82-.615 1.319-1.496 1.273-2.657-.023-.64-.23-1.278-.483-1.879.076-.109.145-.218.222-.327 1.296-1.925 2.3-4.037 2.3-4.037s.092.647.407 1.722c.153.546.467 1.138.743 1.715-1.219 1.005-1.97 2.174-2.239 2.938-.483 1.418-.107 2.058.606 2.206.322.07.782-.086 1.12-.234.429-.14.935-.382 1.418-.74.82-.616 1.61-1.474 1.564-2.635-.023-.53-.161-1.052-.353-1.558 1.035-.437 2.37-.678 4.072-.476 3.65.437 4.37 2.751 4.232 3.725-.138.975-.905 1.505-1.158 1.668-.253.164-.337.218-.314.335.03.172.153.164.368.133.299-.055 1.917-.787 1.986-2.58.114-2.291-2.032-4.793-5.828-4.77zM8.988 34.04c-1.211 1.34-2.898 1.847-3.626 1.418-.782-.46-.476-2.439 1.012-3.857.904-.866 2.07-1.668 2.844-2.16.177-.108.437-.264.752-.46l.084-.046.184-.117c.544 2.027.023 3.811-1.25 5.222zm8.817-6.095c-.421 1.045-1.303 3.718-1.84 3.57-.46-.125-.743-2.151-.092-4.154.33-1.005 1.028-2.206 1.434-2.673.66-.748 1.388-.998 1.564-.694.222.398-.805 3.297-1.066 3.951zm7.276 3.539c-.176.093-.345.155-.421.109-.054-.031.076-.156.076-.156s.913-.998 1.273-1.45c.207-.265.452-.576.713-.927v.101c0 1.193-1.135 1.995-1.64 2.323zm5.613-1.302c-.13-.093-.108-.405.33-1.38.168-.381.567-1.02 1.249-1.636.077.25.13.491.123.717-.008 1.504-1.066 2.065-1.702 2.3z" fill="#CD6799"/></g><defs><clipPath id="clip0"><path fill="#fff" d="M1 6h42v32H1z"/></clipPath></defs></svg>