<svg viewBox="0 0 44 44" fill="none" xmlns="http://www.w3.org/2000/svg"><g clip-path="url(#clip0)"><path d="M37.84 9.687L24.584 1.812a4.983 4.983 0 00-5.119 0L6.21 9.687c-1.583.935-2.56 2.674-2.56 4.553v15.742c0 1.878.977 3.617 2.56 4.552l13.256 7.867a5.015 5.015 0 002.56.706c.886 0 1.763-.238 2.559-.706l13.256-7.867c1.583-.943 2.56-2.674 2.56-4.552V14.24c0-1.879-.977-3.618-2.56-4.553z" fill="#fff"/><path d="M37.84 9.688L24.584 1.813a5.015 5.015 0 00-2.56-.706c-.885 0-1.763.238-2.559.706L6.21 9.688c-1.583.935-2.56 2.674-2.56 4.552v15.742c0 1.879.977 3.618 2.56 4.553l13.256 7.867a5.015 5.015 0 002.56.705c.886 0 1.763-.238 2.559-.705l13.256-7.867a5.292 5.292 0 002.56-4.553V14.24c0-1.878-.977-3.617-2.56-4.552zm-17.907 31.91L6.677 33.73c-1.297-.771-2.1-2.207-2.1-3.749V14.24c0-1.542.803-2.978 2.1-3.749l13.256-7.866a4.095 4.095 0 014.184 0l13.256 7.866c1.09.649 1.829 1.772 2.034 3.036-.443-.936-1.427-1.198-2.584-.517L24.28 20.762c-1.566.91-2.715 1.944-2.715 3.822V40.04c0 1.132.451 1.862 1.157 2.075a3.94 3.94 0 01-.697.066 4.186 4.186 0 01-2.092-.582z" fill="#283037"/><path d="M34.37 31.5l-3.305 1.976c-.09.05-.156.107-.156.213v.862c0 .106.074.147.155.098l3.356-2.034c.09-.05.098-.148.098-.255v-.762c.008-.107-.066-.148-.148-.099z" fill="#4DA825"/><path d="M27.34 24.231c.107-.057.197.017.197.156l.008 1.14c.476-.188.894-.238 1.272-.155.082.024.115.13.082.262l-.255 1.009a.461.461 0 01-.114.205c-.025.025-.041.041-.066.05a.141.141 0 01-.098.016c-.173-.041-.583-.132-1.223.197-.672.344-.91.927-.902 1.361.008.517.27.681 1.19.69 1.222.016 1.755.557 1.763 1.788.017 1.214-.631 2.51-1.624 3.314l.024 1.132c0 .14-.09.295-.196.344l-.673.386c-.107.057-.197-.008-.197-.148l-.008-1.116c-.574.238-1.157.296-1.526.148-.074-.024-.098-.131-.074-.246l.246-1.025a.398.398 0 01.123-.214c.025-.016.041-.032.066-.049.041-.016.074-.024.107-.008.402.131.91.074 1.402-.18.624-.32 1.042-.952 1.034-1.592-.008-.574-.32-.812-1.075-.82-.96 0-1.862-.189-1.878-1.608-.008-1.165.599-2.379 1.558-3.15l-.008-1.14c0-.14.082-.296.197-.353l.648-.394z" fill="#fff"/></g><defs><clipPath id="clip0"><path fill="#fff" d="M1 1h42v42H1z"/></clipPath></defs></svg>