<svg viewBox="0 0 44 44" fill="none" xmlns="http://www.w3.org/2000/svg"><path d="M38.786 13.473c.026.372.026.744.026 1.116C38.812 25.931 30.357 39 14.904 39A23.39 23.39 0 012 35.148c.676.08 1.327.107 2.03.107a16.61 16.61 0 0010.431-3.666c-3.694-.08-6.79-2.55-7.856-5.95.52.08 1.04.133 1.587.133.754 0 1.509-.106 2.211-.292-3.85-.797-6.738-4.25-6.738-8.42v-.107a8.33 8.33 0 003.798 1.09 8.622 8.622 0 01-3.746-7.146c0-1.594.416-3.055 1.145-4.33 4.136 5.206 10.354 8.606 17.326 8.978a9.877 9.877 0 01-.208-1.965c0-4.728 3.746-8.58 8.403-8.58a8.303 8.303 0 016.14 2.71 16.353 16.353 0 005.332-2.072 8.527 8.527 0 01-3.694 4.728c1.691-.186 3.33-.664 4.839-1.328a18.273 18.273 0 01-4.214 4.435z" fill="#0C0C0C"/></svg>