<svg viewBox="0 0 44 44" fill="none" xmlns="http://www.w3.org/2000/svg"><g clip-path="url(#clip0)"><mask id="a" maskUnits="userSpaceOnUse" x="2" y="2" width="40" height="40"><path fill-rule="evenodd" clip-rule="evenodd" d="M30.365 41.727a2.49 2.49 0 001.984-.076l8.236-3.963A2.5 2.5 0 0042 35.435V8.565a2.5 2.5 0 00-1.416-2.253L32.35 2.35a2.49 2.49 0 00-2.841.484L13.742 17.217l-6.867-5.213a1.665 1.665 0 00-2.127.094l-2.203 2.004a1.667 1.667 0 00-.002 2.465L8.5 22l-5.956 5.433a1.667 1.667 0 00.002 2.465l2.203 2.004c.593.54 1.488.58 2.127.094l6.867-5.212 15.766 14.383c.249.25.542.437.857.56zm1.641-28.807L20.044 22l11.962 9.08V12.92z" fill="#fff"/></mask><g mask="url(#a)"><path d="M40.585 6.32l-8.242-3.967a2.492 2.492 0 00-2.843.483l-26.98 24.6a1.667 1.667 0 00.002 2.464l2.204 2.004c.594.54 1.488.58 2.128.095L39.344 7.35C40.435 6.523 42 7.3 42 8.67v-.096a2.5 2.5 0 00-1.415-2.252z" fill="#0065A9"/><g filter="url(#filter0_d)"><path d="M40.584 37.682l-8.241 3.968a2.492 2.492 0 01-2.843-.483l-26.98-24.6a1.667 1.667 0 01.001-2.465l2.204-2.004a1.667 1.667 0 012.128-.094l32.491 24.648c1.09.827 2.656.05 2.656-1.319v.096a2.5 2.5 0 01-1.416 2.253z" fill="#007ACC"/></g><g filter="url(#filter1_d)"><path d="M32.343 41.65a2.493 2.493 0 01-2.843-.483c.923.922 2.5.269 2.5-1.036V3.87c0-1.305-1.577-1.958-2.5-1.036a2.493 2.493 0 012.843-.484l8.24 3.963A2.5 2.5 0 0142 8.565v26.87a2.5 2.5 0 01-1.416 2.253l-8.24 3.963z" fill="#1F9CF0"/></g><path style="mix-blend-mode:overlay" opacity=".25" fill-rule="evenodd" clip-rule="evenodd" d="M30.34 41.727a2.49 2.49 0 001.985-.076l8.235-3.963a2.5 2.5 0 001.416-2.253V8.565a2.5 2.5 0 00-1.415-2.253L32.325 2.35a2.49 2.49 0 00-2.841.484L13.718 17.217l-6.867-5.213a1.665 1.665 0 00-2.127.095L2.52 14.102a1.667 1.667 0 00-.001 2.465L8.475 22 2.52 27.433a1.667 1.667 0 00.001 2.465l2.203 2.004c.594.54 1.488.58 2.127.095l6.867-5.213 15.766 14.383c.25.25.542.438.857.56zm1.642-28.807L20.02 22l11.962 9.08V12.92z" fill="url(#paint0_linear)"/></g></g><defs><filter id="filter0_d" x="-19.358" y="-9.668" width="82.691" height="72.898" filterUnits="userSpaceOnUse" color-interpolation-filters="sRGB"><feFlood flood-opacity="0" result="BackgroundImageFix"/><feColorMatrix in="SourceAlpha" values="0 0 0 0 0 0 0 0 0 0 0 0 0 0 0 0 0 0 127 0"/><feOffset/><feGaussianBlur stdDeviation="10.667"/><feColorMatrix values="0 0 0 0 0 0 0 0 0 0 0 0 0 0 0 0 0 0 0.25 0"/><feBlend mode="overlay" in2="BackgroundImageFix" result="effect1_dropShadow"/><feBlend in="SourceGraphic" in2="effect1_dropShadow" result="shape"/></filter><filter id="filter1_d" x="8.167" y="-19.23" width="55.167" height="82.461" filterUnits="userSpaceOnUse" color-interpolation-filters="sRGB"><feFlood flood-opacity="0" result="BackgroundImageFix"/><feColorMatrix in="SourceAlpha" values="0 0 0 0 0 0 0 0 0 0 0 0 0 0 0 0 0 0 127 0"/><feOffset/><feGaussianBlur stdDeviation="10.667"/><feColorMatrix values="0 0 0 0 0 0 0 0 0 0 0 0 0 0 0 0 0 0 0.25 0"/><feBlend mode="overlay" in2="BackgroundImageFix" result="effect1_dropShadow"/><feBlend in="SourceGraphic" in2="effect1_dropShadow" result="shape"/></filter><linearGradient id="paint0_linear" x1="21.976" y1="2.103" x2="21.976" y2="41.897" gradientUnits="userSpaceOnUse"><stop stop-color="#fff"/><stop offset="1" stop-color="#fff" stop-opacity="0"/></linearGradient><clipPath id="clip0"><path fill="#fff" d="M2 2h40v40H2z"/></clipPath></defs></svg>