<svg viewBox="0 0 44 44" fill="currentColor" xmlns="http://www.w3.org/2000/svg">
<path d="M14.9274 34.0527C14.9304 34.0485 14.9334 34.0447 14.9364 34.0412C14.938 34.0427 14.9397 34.0443 14.9413 34.046C14.9475 34.0521 14.9536 34.0591 14.9597 34.067C14.9661 34.0754 14.9724 34.0848 14.9782 34.0953C14.9987 34.1322 15.0081 34.1721 15.0081 34.2079C15.0081 34.2669 14.9913 34.3122 14.972 34.3446C14.9679 34.3514 14.9638 34.3576 14.9597 34.3632C14.9557 34.3687 14.9517 34.3737 14.9478 34.3782C14.9477 34.3782 14.9477 34.3783 14.9476 34.3784C14.9412 34.3721 14.9343 34.3645 14.9274 34.3553C14.9231 34.3496 14.9188 34.3433 14.9146 34.3363C14.8929 34.3005 14.879 34.2555 14.879 34.2079C14.879 34.1454 14.8979 34.0982 14.9186 34.0655C14.9215 34.061 14.9245 34.0567 14.9274 34.0527ZM8.1383 28.6229C8.13806 28.6229 8.13782 28.6229 8.09677 29.1212L8.13782 28.6229L8.12047 28.6214L8.10305 28.6212C7.83371 28.6178 7.60137 28.6362 7.4077 28.6825C7.2201 28.7273 7.01714 28.8107 6.86874 28.9783C6.70189 29.1667 6.6628 29.3935 6.6937 29.5907C6.72137 29.7673 6.80285 29.9176 6.87552 30.0264C7.02232 30.2463 7.23448 30.4439 7.38556 30.5728C7.46533 30.6409 7.53731 30.6974 7.58963 30.7372C7.6159 30.7572 7.63751 30.7731 7.65302 30.7844L7.67162 30.7979L7.6772 30.8019L7.67901 30.8031L7.67966 30.8036L7.67992 30.8038C7.68004 30.8039 7.68014 30.8039 7.96774 30.3949L7.68014 30.8039L7.71587 30.8291L7.75542 30.8476C8.26603 31.0871 8.76138 31.7203 9.15249 32.3926C9.33948 32.714 9.48815 33.0186 9.59009 33.2431C9.64091 33.355 9.67974 33.4462 9.70555 33.5086C9.71845 33.5398 9.72807 33.5638 9.73429 33.5794L9.73837 33.5898C10.4291 35.7226 12.4013 36.3829 14.0207 36.5418C14.8449 36.6226 15.6236 36.5808 16.1928 36.5201C16.3193 36.5066 16.436 36.4921 16.5411 36.4777C16.5429 37.2383 16.5477 38.1111 16.5524 38.8883C16.5542 39.1823 16.556 39.4623 16.5577 39.7173C16.5615 40.3219 16.5645 40.7866 16.5645 40.9655C16.5645 41.1344 16.5061 41.2856 16.4114 41.3747C16.3363 41.4453 16.1695 41.5422 15.7947 41.4806C7.98399 38.7788 2.5 31.1352 2.5 22.1817C2.5 10.9759 10.8423 2.5 21.7419 2.5C32.6584 2.5 41.5 10.9928 41.5 22.1817C41.5 31.1421 36.1706 38.7808 28.3427 41.4641C27.9728 41.5255 27.8049 41.4295 27.7279 41.3574C27.6314 41.267 27.5726 41.1151 27.5726 40.9489C27.5726 40.7262 27.5752 40.2022 27.5787 39.4988C27.5806 39.1363 27.5826 38.7261 27.5847 38.2849C27.5907 36.9892 27.5968 35.4292 27.5968 34.0342C27.5968 32.5383 27.2423 31.3923 26.7105 30.5825C28.6715 30.3358 30.7159 29.9619 32.3315 28.8343C34.2577 27.49 35.4839 25.1533 35.4839 21.0568C35.4839 19.8601 35.2741 18.9328 34.8786 18.1046C34.5273 17.3687 34.0389 16.7325 33.471 16.0751C33.7519 15.1854 34.1847 13.0507 33.1602 10.3893L33.0745 10.1667L32.8476 10.0933C32.2744 9.90761 31.5909 10.0185 30.9667 10.2095C30.3231 10.4064 29.6487 10.7187 29.0448 11.0392C28.4382 11.3612 27.8879 11.6995 27.4901 11.9565C27.3027 12.0776 27.1484 12.1812 27.037 12.2572C25.444 11.823 23.7464 11.5991 22.0645 11.5991C20.3825 11.5991 18.6847 11.823 17.0916 12.2573C16.9803 12.1815 16.8259 12.0782 16.6384 11.9573C16.2407 11.701 15.6904 11.3635 15.0839 11.0421C14.4801 10.7222 13.8059 10.4103 13.1626 10.213C12.5387 10.0217 11.8561 9.90996 11.2835 10.0926L11.0553 10.1654L10.969 10.3889C9.9441 13.0437 10.3773 15.1844 10.6582 16.0753C10.0897 16.739 9.63988 17.3781 9.32907 18.1208C8.98232 18.9495 8.82258 19.873 8.82258 21.0568C8.82258 25.1336 9.99346 27.4722 11.8679 28.8237C13.4465 29.9619 15.4571 30.3403 17.4143 30.5858C17.0656 31.1259 16.7873 31.8097 16.638 32.637C16.0853 32.8668 15.2717 33.1012 14.4247 33.0235C13.484 32.9373 12.4497 32.4639 11.6472 31.0131L11.6457 31.0104C11.0292 29.912 10.1574 29.3143 9.44372 28.9938C9.08777 28.834 8.7695 28.7422 8.53761 28.69C8.42142 28.6638 8.32617 28.6474 8.25776 28.6374C8.22353 28.6324 8.19594 28.629 8.17573 28.6267L8.151 28.6241L8.14294 28.6233L8.14001 28.623L8.13882 28.6229L8.1383 28.6229ZM9.04667 29.9117C9.04751 29.9121 9.04834 29.9125 9.04917 29.9129L9.20262 30.0176L9.12679 30.1655C9.08394 30.1407 9.04775 30.1122 9.01948 30.0819C9.01926 30.0796 9.01906 30.0773 9.01889 30.0749C9.01482 30.0202 9.02413 29.9635 9.04667 29.9117ZM9.19104 30.2007C9.22421 30.2161 9.25855 30.225 9.29199 30.2277C9.32217 30.2076 9.35346 30.1791 9.38072 30.1392L9.24062 30.0435L9.23961 30.0429L9.23827 30.0472L9.19104 30.2007ZM10.1833 30.706C10.2068 30.7301 10.2301 30.7547 10.2533 30.7799C10.2415 30.8107 10.2233 30.8435 10.1956 30.8752C10.1936 30.8774 10.1917 30.8796 10.1896 30.8818C10.1854 30.8864 10.181 30.8909 10.1763 30.8954C10.1745 30.897 10.1727 30.8985 10.1708 30.9C10.1631 30.9064 10.1551 30.9123 10.1468 30.9178C10.1133 30.9404 10.0763 30.9559 10.0393 30.9642C9.98669 30.9759 9.9465 30.9704 9.9261 30.9657C9.91463 30.963 9.90659 30.9601 9.90136 30.9578L9.95795 30.9026L10.0627 30.8112L10.0717 30.8034L10.0982 30.7803L10.1049 30.7744L10.1833 30.706ZM10.0064 30.6495C10.0318 30.6325 10.0591 30.6195 10.0869 30.6105C10.1137 30.6362 10.1405 30.6624 10.167 30.6894L10.0905 30.7562L10.0815 30.764L10.055 30.7871L10.0483 30.793L9.88461 30.9358C9.88339 30.931 9.88216 30.9249 9.88119 30.9174C9.87703 30.8854 9.87741 30.7837 9.95766 30.6921C9.95959 30.6899 9.96157 30.6877 9.96359 30.6856C9.96782 30.681 9.97226 30.6764 9.97692 30.6719C9.97872 30.6704 9.98054 30.6688 9.98238 30.6673C9.99015 30.661 9.99817 30.6551 10.0064 30.6495ZM9.89348 30.9534C9.89348 30.9533 9.8942 30.9537 9.89553 30.9548C9.89412 30.954 9.89347 30.9535 9.89348 30.9534ZM9.88974 30.9502C9.88971 30.9502 9.88942 30.9497 9.88895 30.9487L9.88974 30.9502ZM10.9514 31.8023C10.9583 31.8133 10.9651 31.8242 10.972 31.835C10.9737 31.8378 10.9755 31.8406 10.9773 31.8434C10.9797 31.8472 10.9821 31.851 10.9845 31.8548C10.9975 31.8751 11.0105 31.8954 11.0236 31.9154C11.0124 31.9331 10.9981 31.9512 10.9801 31.9685C10.9735 31.9748 10.9664 31.981 10.9588 31.9871C10.9494 31.9936 10.9396 31.9994 10.9296 32.0046C10.9245 32.0073 10.9193 32.0098 10.9141 32.0122L10.8577 31.9408L10.8494 31.9302L10.8373 31.9149L10.8032 31.8717C10.8126 31.8643 10.822 31.8575 10.8315 31.8515C10.8431 31.8439 10.8546 31.8374 10.8661 31.8317C10.8964 31.8166 10.9255 31.8075 10.9514 31.8023ZM10.8485 31.947L10.9059 32.0158C10.8795 32.0268 10.8522 32.0337 10.8256 32.0367C10.783 32.0414 10.7496 32.0354 10.728 32.0287C10.7241 32.0275 10.7206 32.0263 10.7175 32.0252C10.7157 32.0245 10.714 32.0238 10.7123 32.0231C10.7118 32.0229 10.7113 32.0227 10.7108 32.0225C10.7122 32.012 10.7148 31.9991 10.7197 31.9848C10.7304 31.9529 10.7518 31.9142 10.7928 31.8801L10.827 31.9211L10.8399 31.9366L10.8485 31.947ZM10.6804 32.003C10.6804 32.0029 10.6809 32.0034 10.6817 32.0046C10.6808 32.0037 10.6804 32.0031 10.6804 32.003ZM11.8731 33.0335C11.8966 33.0162 11.9218 33.0031 11.9467 32.9944C11.9486 32.9961 11.9506 32.9978 11.9525 32.9995C11.9575 33.0039 11.9625 33.0082 11.9676 33.0126C11.9698 33.0145 11.9721 33.0165 11.9744 33.0185C11.977 33.0207 11.9796 33.023 11.9823 33.0253C11.9876 33.0299 11.993 33.0344 11.9983 33.039C11.9924 33.0608 11.9829 33.0846 11.9682 33.1088C11.9618 33.1193 11.9545 33.1298 11.946 33.1403C11.9439 33.1429 11.9417 33.1454 11.9395 33.148C11.9323 33.1546 11.9251 33.1606 11.9178 33.1661C11.9106 33.1715 11.9035 33.1763 11.8963 33.1807C11.855 33.2059 11.8146 33.2152 11.7849 33.2177C11.7832 33.2179 11.7815 33.218 11.7798 33.2181C11.7752 33.2184 11.7709 33.2186 11.7669 33.2186C11.7667 33.2186 11.7665 33.2186 11.7663 33.2186C11.7669 33.2134 11.7677 33.2077 11.7688 33.2015C11.7691 33.2001 11.7694 33.1986 11.7697 33.1971C11.7753 33.1701 11.7887 33.1298 11.8188 33.0877C11.8188 33.0877 11.8188 33.0876 11.8188 33.0876C11.823 33.0816 11.8276 33.0756 11.8326 33.0696C11.8392 33.0625 11.846 33.0559 11.8531 33.0497C11.8596 33.0439 11.8663 33.0385 11.8731 33.0335ZM11.8178 33.0869C11.8178 33.0868 11.8179 33.0867 11.818 33.0866L11.8178 33.0869ZM13.3039 33.8208C13.3101 33.8147 13.3161 33.8095 13.3219 33.8048L13.2782 33.947L13.2778 33.9484L13.2705 33.9721L13.2363 34.083C13.227 34.0521 13.2214 34.0099 13.2319 33.9589C13.2335 33.9512 13.2355 33.9433 13.2379 33.9352C13.2535 33.8816 13.2793 33.8451 13.3039 33.8208ZM13.2509 34.1191C13.249 34.1155 13.2471 34.1115 13.2452 34.1072C13.2449 34.1064 13.2445 34.1055 13.2442 34.1047L13.2501 34.0831L13.2799 33.9753L13.287 33.9496L13.3272 33.8042C13.3322 33.8059 13.3373 33.8077 13.3423 33.8094C13.3502 33.8291 13.357 33.8536 13.3593 33.8821C13.3615 33.9079 13.36 33.937 13.3524 33.9687C13.3502 33.978 13.3475 33.9875 13.3442 33.9972C13.325 34.0534 13.2947 34.0866 13.2714 34.1051C13.2635 34.1113 13.2565 34.1159 13.2509 34.1191ZM16.4166 34.0074C16.4091 33.9562 16.417 33.9094 16.4309 33.8736L16.4624 34.0006L16.4166 34.0074ZM16.4171 34.0111L16.4632 34.004L16.472 34.0396L16.4722 34.0408L16.425 34.0477C16.4218 34.0362 16.4191 34.024 16.4171 34.0111ZM16.4702 34.0225L16.4657 34.0036L16.4682 34.0032L16.4702 34.0225ZM16.473 34.0485L16.4846 34.1584C16.4835 34.1572 16.4824 34.1559 16.4813 34.1546C16.4625 34.1329 16.4407 34.0992 16.427 34.0543L16.473 34.0485ZM16.5494 34.1354C16.5485 34.1381 16.5474 34.1407 16.5464 34.1432L16.5214 34.0423L16.5605 34.0373C16.5646 34.0697 16.5608 34.1042 16.5494 34.1354ZM16.5193 34.0339L16.5102 33.9967L16.5513 33.9904C16.5546 34.0022 16.5573 34.0147 16.5593 34.0281L16.5193 34.0339ZM16.479 33.8711C16.5053 33.8952 16.5345 33.9329 16.5505 33.9878L16.5094 33.9938L16.479 33.8711ZM16.4678 33.9999L16.4649 34.0003L16.4332 33.8679C16.4369 33.8592 16.4407 33.8516 16.4444 33.845C16.4467 33.8464 16.4493 33.848 16.4519 33.8497L16.4678 33.9999Z" fill="currentColor"/>
</svg>
