<svg viewBox="0 0 44 44" fill="none" xmlns="http://www.w3.org/2000/svg">
<path d="M22.0407 43L7.28765 38.9015L4 2H40.1256L36.8345 38.8957L22.0407 43Z" fill="#264DE4"/>
<path d="M34.0168 36.5463L36.8293 5.01721H22.0627V39.8628L34.0168 36.5463Z" fill="#2965F1"/>
<path d="M11.5369 18.7034L11.9422 23.2292H22.0628V18.7034H11.5369Z" fill="#EBEBEB"/>
<path d="M10.7224 9.54315L11.1335 14.069H22.0628V9.54315H22.0471H10.7224Z" fill="#EBEBEB"/>
<path d="M22.0628 30.4575L22.043 30.4628L17.0062 29.1018L16.6842 25.4922H14.2367H12.1443L12.7779 32.5984L22.042 35.1721L22.0628 35.1663V30.4575Z" fill="#EBEBEB"/>
<path d="M32.5598 18.7035L33.3762 9.54315H22.0472V14.069H28.4199L28.0084 18.7035H22.0472V23.2293H27.6162L27.0912 29.0989L22.0472 30.4613V35.1699L31.3186 32.5985L31.3867 31.8338L32.4494 19.9188L32.5598 18.7035Z" fill="white"/>
</svg>


