<svg viewBox="0 0 23 17" fill="none" xmlns="http://www.w3.org/2000/svg">
<path d="M22.776 6.24036C22.712 6.18703 22.136 5.74967 20.8986 5.74967C20.5785 5.74967 20.2478 5.78167 19.9278 5.83501C19.6931 4.20292 18.3384 3.41354 18.2851 3.37087L17.9544 3.17886L17.741 3.48821C17.4744 3.90424 17.2717 4.37359 17.1543 4.85362C16.9303 5.78167 17.069 6.65639 17.5384 7.4031C16.973 7.72311 16.0556 7.79779 15.8636 7.80845H0.716099C0.32141 7.80845 0.00139226 8.12847 0.00139226 8.52316C-0.0199423 9.8459 0.20407 11.1686 0.662762 12.4167C1.18546 13.7821 1.96417 14.7955 2.96689 15.4142C4.09762 16.1076 5.94305 16.5023 8.02317 16.5023C8.96189 16.5023 9.90061 16.4169 10.8287 16.2463C12.1194 16.0116 13.3568 15.5636 14.4982 14.9128C15.4369 14.3688 16.2796 13.6754 16.9943 12.8647C18.1997 11.51 18.9144 9.99524 19.4371 8.65117C19.5118 8.65117 19.5758 8.65117 19.6505 8.65117C20.9626 8.65117 21.7733 8.12847 22.2213 7.68044C22.52 7.4031 22.744 7.06174 22.904 6.67772L23 6.40037L22.776 6.24036Z" fill="#0091E2"/>
<path d="M22.776 6.24036C22.712 6.18703 22.136 5.74967 20.8986 5.74967C20.5785 5.74967 20.2478 5.78167 19.9278 5.83501C19.6931 4.20292 18.3384 3.41354 18.2851 3.37087L17.9544 3.17886L17.741 3.48821C17.4744 3.90424 17.2717 4.37359 17.1543 4.85362C16.9303 5.78167 17.069 6.65639 17.5384 7.4031C16.973 7.72311 16.0556 7.79779 15.8636 7.80845H0.716099C0.32141 7.80845 0.00139226 8.12847 0.00139226 8.52316C-0.0199423 9.8459 0.20407 11.1686 0.662762 12.4167C1.18546 13.7821 1.96417 14.7955 2.96689 15.4142C4.09762 16.1076 5.94305 16.5023 8.02317 16.5023C8.96189 16.5023 9.90061 16.4169 10.8287 16.2463C12.1194 16.0116 13.3568 15.5636 14.4982 14.9128C15.4369 14.3688 16.2796 13.6754 16.9943 12.8647C18.1997 11.51 18.9144 9.99524 19.4371 8.65117C19.5118 8.65117 19.5758 8.65117 19.6505 8.65117C20.9626 8.65117 21.7733 8.12847 22.2213 7.68044C22.52 7.4031 22.744 7.06174 22.904 6.67772L23 6.40037L22.776 6.24036Z" fill="#0091E2"/>
<path d="M2.12409 7.37107H4.15087C4.24688 7.37107 4.33222 7.29639 4.33222 7.18972V5.37629C4.33222 5.28028 4.25754 5.19495 4.15087 5.19495H2.12409C2.02809 5.19495 1.94275 5.26962 1.94275 5.37629V7.18972C1.95342 7.29639 2.02809 7.37107 2.12409 7.37107Z" fill="#0091E2"/>
<path d="M4.91901 7.37107H6.94579C7.0418 7.37107 7.12714 7.29639 7.12714 7.18972V5.37629C7.12714 5.28028 7.05247 5.19495 6.94579 5.19495H4.91901C4.82301 5.19495 4.73767 5.26962 4.73767 5.37629V7.18972C4.74834 7.29639 4.82301 7.37107 4.91901 7.37107Z" fill="#0091E2"/>
<path d="M7.76716 7.37107H9.79394C9.88994 7.37107 9.97528 7.29639 9.97528 7.18972V5.37629C9.97528 5.28028 9.90061 5.19495 9.79394 5.19495H7.76716C7.67115 5.19495 7.58582 5.26962 7.58582 5.37629V7.18972C7.58582 7.29639 7.66049 7.37107 7.76716 7.37107Z" fill="#0091E2"/>
<path d="M10.5726 7.37107H12.5994C12.6954 7.37107 12.7807 7.29639 12.7807 7.18972V5.37629C12.7807 5.28028 12.706 5.19495 12.5994 5.19495H10.5726C10.4766 5.19495 10.3912 5.26962 10.3912 5.37629V7.18972C10.3912 7.29639 10.4766 7.37107 10.5726 7.37107Z" fill="#0091E2"/>
<path d="M4.91901 4.77891H6.94579C7.0418 4.77891 7.12714 4.69357 7.12714 4.59756V2.78413C7.12714 2.68812 7.05247 2.60278 6.94579 2.60278H4.91901C4.82301 2.60278 4.73767 2.67746 4.73767 2.78413V4.59756C4.74834 4.69357 4.82301 4.77891 4.91901 4.77891Z" fill="#0091E2"/>
<path d="M7.76716 4.77891H9.79394C9.88994 4.77891 9.97528 4.69357 9.97528 4.59756V2.78413C9.97528 2.68812 9.90061 2.60278 9.79394 2.60278H7.76716C7.67115 2.60278 7.58582 2.67746 7.58582 2.78413V4.59756C7.58582 4.69357 7.66049 4.77891 7.76716 4.77891Z" fill="#0091E2"/>
<path d="M10.5726 4.77891H12.5994C12.6954 4.77891 12.7807 4.69357 12.7807 4.59756V2.78413C12.7807 2.68812 12.6954 2.60278 12.5994 2.60278H10.5726C10.4766 2.60278 10.3912 2.67746 10.3912 2.78413V4.59756C10.3912 4.69357 10.4766 4.77891 10.5726 4.77891Z" fill="#0091E2"/>
<path d="M10.5726 2.17612H12.5994C12.6954 2.17612 12.7807 2.10145 12.7807 1.99478V0.181345C12.7807 0.0853394 12.6954 0 12.5994 0H10.5726C10.4766 0 10.3912 0.0746721 10.3912 0.181345V1.99478C10.3912 2.09078 10.4766 2.17612 10.5726 2.17612Z" fill="#0091E2"/>
<path d="M13.3995 7.37107H15.4263C15.5223 7.37107 15.6076 7.29639 15.6076 7.18972V5.37629C15.6076 5.28028 15.5329 5.19495 15.4263 5.19495H13.3995C13.3035 5.19495 13.2181 5.26962 13.2181 5.37629V7.18972C13.2288 7.29639 13.3035 7.37107 13.3995 7.37107Z" fill="#0091E2"/>
</svg>
