<svg viewBox="0 0 44 44" fill="currentColor" xmlns="http://www.w3.org/2000/svg">
<path d="M38.7856 13.4734C38.8117 13.8453 38.8117 14.2172 38.8117 14.5891C38.8117 25.9312 30.3567 39 14.9036 39C10.1428 39 5.7202 37.5921 2 35.1485C2.67642 35.2281 3.32674 35.2547 4.02919 35.2547C7.95744 35.2547 11.5736 33.9 14.4613 31.5891C10.7671 31.5094 7.67132 29.0391 6.60467 25.6391C7.12502 25.7187 7.64529 25.7718 8.19166 25.7718C8.94608 25.7718 9.70058 25.6655 10.403 25.4797C6.5527 24.6828 3.66491 21.2297 3.66491 17.0594V16.9531C4.78353 17.5907 6.0844 17.9891 7.46311 18.0421C5.19977 16.5015 3.71696 13.8718 3.71696 10.8968C3.71696 9.30309 4.13313 7.84216 4.8616 6.56715C8.99805 11.7734 15.2157 15.1733 22.1878 15.5453C22.0577 14.9078 21.9797 14.2438 21.9797 13.5797C21.9797 8.85152 25.7259 5 30.3826 5C32.802 5 34.9873 6.03593 36.5222 7.70937C38.4213 7.33752 40.2423 6.62029 41.8554 5.6375C41.2309 7.62974 39.9042 9.30318 38.1612 10.3656C39.8522 10.1798 41.4912 9.70152 43 9.03753C41.8555 10.7375 40.4246 12.2515 38.7856 13.4734V13.4734Z" fill="currentColor"/>
</svg>
