<svg width="44" height="44" viewBox="0 0 44 44" fill="none" xmlns="http://www.w3.org/2000/svg">
<g clip-path="url(#clip0)">
<path d="M37.1415 24.3917C35.6771 24.3995 34.4043 24.7579 33.3387 25.2879C32.9476 24.5007 32.5567 23.7994 32.4875 23.285C32.4109 22.6849 32.319 22.3186 32.4109 21.6016C32.5029 20.8846 32.917 19.8636 32.9093 19.7857C32.9016 19.7078 32.8172 19.3415 31.9739 19.3337C31.1306 19.3259 30.4022 19.4974 30.3179 19.7234C30.2335 19.9494 30.0725 20.4638 29.9651 20.9937C29.8195 21.773 28.2784 24.5553 27.3968 26.0127C27.1131 25.4438 26.8678 24.945 26.814 24.5474C26.7374 23.9474 26.6453 23.5811 26.7374 22.8641C26.8293 22.1471 27.2433 21.1262 27.2358 21.0483C27.2281 20.9703 27.1437 20.604 26.3002 20.5962C25.4569 20.5884 24.7286 20.7599 24.6442 20.9859C24.5599 21.2119 24.468 21.7419 24.2916 22.2562C24.1152 22.7706 22.068 27.4155 21.5315 28.6157C21.2553 29.2314 21.0177 29.7224 20.849 30.0575C20.849 30.0575 20.8415 30.081 20.8184 30.1199C20.6728 30.4082 20.5884 30.5642 20.5884 30.5642C20.5884 30.5642 20.5884 30.5642 20.5884 30.5718C20.4734 30.7823 20.3508 30.9771 20.2893 30.9771C20.2433 30.9771 20.159 30.4161 20.3047 29.6522C20.6113 28.039 21.3397 25.5295 21.3322 25.4438C21.3322 25.397 21.4701 24.9606 20.8567 24.7346C20.2587 24.5085 20.044 24.8826 19.9904 24.8826C19.9367 24.8826 19.8984 25.0152 19.8984 25.0152C19.8984 25.0152 20.5653 22.1939 18.6256 22.1939C17.4142 22.1939 15.7428 23.5422 14.9148 24.7579C14.3934 25.0463 13.2817 25.6619 12.0933 26.3245C11.641 26.5816 11.1733 26.8388 10.7362 27.0804C10.7056 27.0493 10.6749 27.0102 10.6442 26.9791C8.29812 24.4306 3.95859 22.6303 4.14259 19.209C4.21159 17.962 4.63329 14.6888 12.4767 10.7141C18.9324 7.47982 24.0692 8.37607 24.9585 10.3634C26.2313 13.2002 22.2061 18.4686 15.5358 19.2324C12.9903 19.5207 11.6563 18.5232 11.3189 18.1491C10.9663 17.7594 10.9126 17.736 10.7822 17.814C10.5676 17.9309 10.7056 18.2816 10.7822 18.4842C10.9816 19.0142 11.802 19.9494 13.1897 20.4092C14.4164 20.8145 17.3989 21.0405 21.01 19.622C25.0506 18.0322 28.2095 13.6133 27.2816 9.91138C26.354 6.15493 20.2204 4.91577 14.4164 7.01222C10.9663 8.25917 7.22474 10.2231 4.53361 12.7794C1.33646 15.8188 0.830436 18.4608 1.03745 19.5675C1.78115 23.4954 7.10973 26.0516 9.24118 27.9455C9.13383 28.0079 9.03415 28.0623 8.94982 28.1092C7.88411 28.6468 3.82059 30.8058 2.80853 33.0891C1.65848 35.6765 2.99254 37.5314 3.87424 37.7809C6.61138 38.5524 9.42517 37.1652 10.9356 34.8739C12.446 32.5827 12.262 29.6054 11.5643 28.2417C11.5566 28.226 11.5489 28.2104 11.5336 28.1949C11.8096 28.0312 12.0933 27.8598 12.3693 27.6961C12.9137 27.3688 13.4504 27.0648 13.9104 26.8154C13.6497 27.5402 13.458 28.4052 13.366 29.6522C13.251 31.1174 13.8414 33.0191 14.6158 33.7672C14.9608 34.0945 15.3671 34.1023 15.6278 34.1023C16.5325 34.1023 16.9389 33.3386 17.3912 32.4346C17.9432 31.3279 18.4416 30.0418 18.4416 30.0418C18.4416 30.0418 17.8206 33.5178 19.5073 33.5178C20.1206 33.5178 20.7417 32.7073 21.0177 32.2943C21.0177 32.3021 21.0177 32.3021 21.0177 32.3021C21.0177 32.3021 21.0331 32.2786 21.0637 32.2241C21.1251 32.1227 21.1635 32.0605 21.1635 32.0605C21.1635 32.0605 21.1635 32.0527 21.1635 32.0449C21.4088 31.6084 21.9608 30.6186 22.7812 28.9743C23.8392 26.8545 24.8589 24.2047 24.8589 24.2047C24.8589 24.2047 24.951 24.8514 25.2653 25.927C25.4492 26.5583 25.8326 27.2518 26.1392 27.922C25.8939 28.2728 25.7406 28.4676 25.7406 28.4676C25.7406 28.4676 25.7406 28.4676 25.7483 28.4755C25.549 28.7403 25.3342 29.0287 25.0966 29.3094C24.261 30.3226 23.2642 31.4836 23.1261 31.8189C22.9651 32.2162 23.0034 32.5046 23.3102 32.7384C23.5326 32.9099 23.9313 32.9332 24.3376 32.9099C25.0889 32.8554 25.6179 32.6683 25.8787 32.5514C26.285 32.4033 26.7603 32.1773 27.205 31.8422C28.0254 31.2266 28.5238 30.3458 28.4778 29.1846C28.4548 28.5455 28.2478 27.9066 27.9948 27.3064C28.0714 27.1972 28.1404 27.0882 28.217 26.9791C29.5129 25.0541 30.5172 22.9421 30.5172 22.9421C30.5172 22.9421 30.6093 23.5889 30.9236 24.6644C31.0769 25.21 31.3912 25.8022 31.6673 26.3789C30.4483 27.3844 29.6968 28.5533 29.4285 29.317C28.9454 30.7355 29.3211 31.3747 30.0342 31.5227C30.3562 31.5928 30.8163 31.4369 31.1535 31.289C31.583 31.1485 32.0889 30.9069 32.5719 30.5485C33.3923 29.9329 34.1821 29.0754 34.136 27.9144C34.1131 27.3844 33.975 26.8621 33.7834 26.3556C34.8184 25.9192 36.1524 25.6776 37.8546 25.8802C41.5041 26.3167 42.2247 28.6314 42.0868 29.6054C41.9487 30.5796 41.1821 31.1096 40.929 31.2733C40.676 31.4369 40.5916 31.4914 40.6147 31.6084C40.6453 31.7798 40.768 31.772 40.9827 31.7409C41.2816 31.6863 42.8995 30.9537 42.9685 29.1613C43.0834 26.8699 40.9367 24.3683 37.1415 24.3917ZM8.98816 34.0399C7.77676 35.3805 6.09002 35.887 5.36165 35.4584C4.57961 34.9987 4.8863 33.0191 6.3737 31.6006C7.27841 30.7355 8.44381 29.9329 9.21817 29.4418C9.39451 29.3327 9.65519 29.1768 9.96955 28.9819C10.0232 28.9508 10.0539 28.9352 10.0539 28.9352C10.1152 28.8962 10.1766 28.8573 10.2379 28.8184C10.7822 30.8447 10.2609 32.6294 8.98816 34.0399ZM17.8052 27.9455C17.3836 28.9898 16.5019 31.663 15.9652 31.5149C15.5051 31.3901 15.2215 29.3638 15.8732 27.361C16.2028 26.3556 16.9005 25.1554 17.3069 24.6879C17.9663 23.9396 18.6946 23.6902 18.871 23.9942C19.0934 24.3917 18.0659 27.2909 17.8052 27.9455ZM25.0812 31.4836C24.905 31.5773 24.7363 31.6395 24.6596 31.5928C24.6059 31.5617 24.7363 31.4369 24.7363 31.4369C24.7363 31.4369 25.6487 30.4394 26.009 29.9874C26.2161 29.7224 26.4614 29.4107 26.722 29.06C26.722 29.0911 26.722 29.13 26.722 29.1613C26.722 30.3537 25.5873 31.1563 25.0812 31.4836ZM30.6936 30.1821C30.5632 30.0886 30.5862 29.777 31.0231 28.8027C31.1918 28.4209 31.5907 27.7818 32.273 27.1661C32.3496 27.4155 32.4034 27.6571 32.3957 27.8831C32.388 29.3873 31.3299 29.9483 30.6936 30.1821Z" fill="#CD6799"/>
</g>
<defs>
<clipPath id="clip0">
<rect x="1" y="6" width="42" height="32" fill="white"/>
</clipPath>
</defs>
</svg>
