<svg viewBox="0 0 44 44" fill="none" xmlns="http://www.w3.org/2000/svg"><path d="M14.927 34.053a.165.165 0 01.01-.012.206.206 0 01.042.054c.02.037.03.077.03.113a.264.264 0 01-.061.17.204.204 0 01-.033-.042.263.263 0 01.013-.284zm-6.789-5.43l-.041.498.04-.498-.017-.002h-.017a2.886 2.886 0 00-.695.062c-.188.044-.39.128-.54.295a.737.737 0 00-.174.613c.027.176.109.327.182.435.146.22.358.418.51.547a4.693 4.693 0 00.267.211l.019.014.005.004.002.001.289-.408-.288.409.036.025.04.019c.51.24 1.005.872 1.396 1.545a9.657 9.657 0 01.582 1.186l.004.01c.691 2.134 2.663 2.794 4.283 2.953a10.863 10.863 0 002.52-.064 686.351 686.351 0 00.017 3.24l.006 1.247c0 .17-.058.32-.153.41-.075.07-.242.167-.616.106C7.984 38.779 2.5 31.135 2.5 22.18 2.5 10.977 10.842 2.5 21.742 2.5 32.658 2.5 41.5 10.993 41.5 22.182c0 8.96-5.33 16.599-13.157 19.282-.37.062-.538-.035-.615-.107a.563.563 0 01-.155-.408 2592.89 2592.89 0 00.012-2.664c.006-1.296.012-2.856.012-4.25 0-1.497-.355-2.643-.887-3.452 1.962-.247 4.006-.621 5.621-1.749 1.927-1.344 3.153-3.68 3.153-7.777 0-1.197-.21-2.124-.605-2.952-.352-.736-.84-1.372-1.408-2.03.28-.89.714-3.024-.31-5.686l-.087-.222-.226-.074c-.574-.185-1.257-.075-1.881.117-.644.196-1.318.509-1.922.83a21.51 21.51 0 00-2.008 1.217 19.051 19.051 0 00-4.973-.658c-1.681 0-3.38.224-4.972.658a21.779 21.779 0 00-2.008-1.215c-.604-.32-1.278-.632-1.921-.829-.624-.191-1.307-.303-1.88-.12l-.228.072-.086.224c-1.025 2.655-.592 4.795-.31 5.686-.57.664-1.02 1.303-1.33 2.046-.347.829-.506 1.752-.506 2.936 0 4.077 1.17 6.415 3.045 7.767 1.579 1.138 3.59 1.516 5.546 1.762-.348.54-.627 1.224-.776 2.051-.553.23-1.366.464-2.213.386-.941-.086-1.975-.56-2.778-2.01l-.001-.003a4.711 4.711 0 00-2.202-2.016 4.808 4.808 0 00-1.186-.357 2.597 2.597 0 00-.082-.01l-.025-.003h-.008l-.003-.001h-.001zm.909 1.289h.002l.154.106-.076.148a.465.465 0 01-.108-.084v-.007a.347.347 0 01.028-.163zm.144.289a.297.297 0 00.101.027.327.327 0 00.089-.089l-.14-.095-.001-.001-.002.004-.047.154zm.992.505l.07.074a.316.316 0 01-.057.095l-.006.007a.282.282 0 01-.02.018.317.317 0 01-.131.064.258.258 0 01-.113.002.144.144 0 01-.025-.008l.057-.055.105-.092.009-.008.026-.023.007-.006.078-.068zm-.177-.056a.325.325 0 01.08-.04c.028.026.054.052.081.08l-.076.066-.01.008-.026.023-.007.006-.163.143a.302.302 0 01.092-.264l.005-.005a.356.356 0 01.024-.018zm-.113.303l.003.002-.003-.002zm-.003-.003l-.001-.001v.001zm1.061.852l.021.033.005.008.008.012.039.06a.285.285 0 01-.065.072.272.272 0 01-.045.025l-.056-.071-.009-.01-.012-.016-.034-.043a.337.337 0 01.063-.04.343.343 0 01.085-.03zm-.103.145l.058.069a.296.296 0 01-.08.02.241.241 0 01-.109-.01c-.001-.002-.003-.002-.005-.003h-.001a.232.232 0 01.082-.142l.034.04.013.016.008.01zm-.168.056l.002.002-.002-.002zm1.193 1.03a.282.282 0 01.074-.039l.006.005.015.014.006.006.008.006.016.014a.27.27 0 01-.052.101l-.006.008a.293.293 0 01-.044.033.257.257 0 01-.13.038c0-.006.002-.011.003-.017v-.005a.293.293 0 01.05-.11.274.274 0 01.054-.054zm-.055.054zm1.486.734a.247.247 0 01.018-.016l-.044.142v.001l-.008.024-.034.111a.251.251 0 01.002-.148.26.26 0 01.066-.114zm-.053.298a.192.192 0 01-.006-.012v-.002l.005-.022.03-.108.007-.025.04-.146.015.005a.271.271 0 01.002.188.23.23 0 01-.093.122zm3.166-.112a.266.266 0 01.014-.133l.031.127-.045.006zm0 .004l.046-.007.009.036-.047.008a.318.318 0 01-.008-.037zm.053.011l-.004-.018h.002l.002.019zm.003.026l.012.11a.278.278 0 01-.058-.104l.046-.006zm.076.087c0 .003-.002.006-.003.008l-.025-.1.04-.006a.212.212 0 01-.012.098zm-.03-.101l-.009-.037.041-.007a.309.309 0 01.008.038l-.04.006zm-.04-.163a.253.253 0 01.072.117l-.042.006-.03-.123zm-.011.129h-.003l-.032-.132a.234.234 0 01.011-.023.275.275 0 01.008.005l.016.15z" fill="#0C0C0C"/></svg>