<svg viewBox="0 0 44 44" fill="none" xmlns="http://www.w3.org/2000/svg"><path d="M41 3H3v38h38V3z" fill="#F7DF1E"/><path d="M28.526 32.688c.766 1.25 1.762 2.168 3.523 2.168 1.48 0 2.425-.74 2.425-1.761 0-1.225-.972-1.658-2.6-2.37l-.893-.384c-2.577-1.098-4.288-2.473-4.288-5.38 0-2.678 2.04-4.717 5.23-4.717 2.27 0 3.902.79 5.078 2.86l-2.78 1.785c-.613-1.098-1.273-1.53-2.299-1.53-1.046 0-1.709.663-1.709 1.53 0 1.07.664 1.504 2.196 2.168l.893.383c3.034 1.3 4.746 2.627 4.746 5.609 0 3.215-2.525 4.976-5.917 4.976-3.316 0-5.458-1.58-6.507-3.652l2.902-1.685zm-12.614.309c.561.995 1.071 1.837 2.298 1.837 1.173 0 1.913-.46 1.913-2.244V20.448h3.571v12.19c0 3.698-2.168 5.38-5.332 5.38-2.859 0-4.515-1.479-5.357-3.261l2.907-1.76z" fill="#000"/></svg>