<svg viewBox="0 0 44 44" fill="none" xmlns="http://www.w3.org/2000/svg"><path d="M38.286 3H5.706C4.213 3 3 4.23 3 5.74v32.52C3 39.77 4.213 41 5.706 41h32.58C39.779 41 41 39.77 41 38.26V5.74C41 4.23 39.779 3 38.286 3zM14.485 35.571H8.853V17.437h5.64V35.57h-.008zM11.669 14.96a3.267 3.267 0 01-3.266-3.266A3.267 3.267 0 0111.67 8.43a3.272 3.272 0 013.265 3.265 3.262 3.262 0 01-3.265 3.266zm23.928 20.61h-5.632v-8.82c0-2.104-.043-4.81-2.927-4.81-2.934 0-3.384 2.29-3.384 4.657v8.974h-5.632V17.437h5.403v2.476h.076c.755-1.425 2.596-2.926 5.336-2.926 5.7 0 6.76 3.758 6.76 8.643v9.941z" fill="#0C0C0C"/></svg>