<svg viewBox="0 0 44 44" fill="currentColor" xmlns="http://www.w3.org/2000/svg">
<path d="M38.2857 3H5.7058C4.21295 3 3 4.22991 3 5.73973V38.2603C3 39.7701 4.21295 41 5.7058 41H38.2857C39.7786 41 41 39.7701 41 38.2603V5.73973C41 4.22991 39.7786 3 38.2857 3ZM14.4848 35.5714H8.85268V17.4366H14.4933V35.5714H14.4848ZM11.6687 14.9598C9.86205 14.9598 8.40312 13.4924 8.40312 11.6942C8.40312 9.89598 9.86205 8.42857 11.6687 8.42857C13.467 8.42857 14.9344 9.89598 14.9344 11.6942C14.9344 13.5009 13.4754 14.9598 11.6687 14.9598V14.9598ZM35.5969 35.5714H29.9647V26.75C29.9647 24.6464 29.9223 21.9406 27.0384 21.9406C24.1036 21.9406 23.654 24.2308 23.654 26.5973V35.5714H18.0219V17.4366H23.425V19.9134H23.5013C24.2562 18.4884 26.0969 16.9871 28.8366 16.9871C34.5366 16.9871 35.5969 20.7446 35.5969 25.6304V35.5714V35.5714Z" fill="currentColor"/>
</svg>
