<svg xmlns="http://www.w3.org/2000/svg" viewBox="0 0 1024 1024">
<path d="M 557.00 914.55 C526.25,917.85 480.92,916.70 459.00,912.06 C456.52,911.53 449.55,910.14 443.50,908.96 C433.61,907.03 429.50,906.32 416.74,904.37 C414.68,904.05 412.74,903.39 412.43,902.89 C412.13,902.40 411.02,902.00 409.97,902.00 C408.93,902.00 406.59,901.37 404.78,900.60 C402.98,899.82 399.48,898.65 397.00,897.98 C394.52,897.32 391.60,896.43 390.50,896.01 C389.40,895.58 386.70,894.55 384.50,893.72 C366.07,886.70 340.68,874.78 330.30,868.26 C327.44,866.47 324.85,865.00 324.55,865.00 C323.71,865.00 292.78,844.38 290.50,842.31 C289.40,841.30 286.48,838.93 284.00,837.02 C259.65,818.31 241.68,800.11 218.78,770.96 C213.58,764.34 202.46,748.06 196.83,738.81 C191.53,730.10 176.98,702.12 174.30,695.48 C173.64,693.84 171.57,688.90 169.69,684.50 C167.82,680.10 165.08,672.90 163.60,668.50 C162.12,664.10 160.51,659.60 160.03,658.50 C159.55,657.40 158.92,655.38 158.64,654.00 C158.37,652.62 157.68,649.92 157.12,648.00 C156.02,644.22 151.91,627.49 149.49,617.00 C148.67,613.42 147.99,608.70 147.98,606.50 C147.97,602.28 146.61,599.05 145.37,600.29 C144.29,601.38 143.00,609.97 141.97,623.00 C141.47,629.33 140.67,639.14 140.18,644.82 C139.39,654.23 139.73,662.99 141.57,680.24 C142.16,685.81 142.07,686.33 140.73,685.00 C139.28,683.56 130.30,659.14 129.32,654.00 C129.06,652.62 128.47,650.60 128.01,649.50 C126.20,645.17 124.00,636.99 124.00,634.62 C124.00,633.24 123.58,631.86 123.07,631.54 C122.56,631.23 121.85,628.39 121.49,625.23 C121.13,622.08 120.24,617.70 119.52,615.50 C117.27,608.64 113.66,584.33 112.03,565.00 C110.71,549.36 110.68,512.13 111.97,501.50 C112.51,497.10 113.47,488.77 114.10,483.00 C115.69,468.63 116.57,462.76 118.45,454.00 C120.31,445.37 121.42,439.95 123.06,431.50 C123.70,428.20 124.62,425.07 125.11,424.55 C125.60,424.03 126.00,422.65 126.00,421.50 C126.00,419.57 132.88,397.15 134.90,392.50 C135.38,391.40 136.98,387.35 138.47,383.50 C145.66,364.89 162.46,330.37 167.35,324.14 C168.54,322.64 170.53,319.31 171.64,317.00 C173.23,313.67 187.19,293.78 195.70,282.72 C216.31,255.92 243.72,228.52 270.58,207.87 C307.41,179.56 353.60,155.65 396.00,142.94 C399.58,141.87 403.87,140.54 405.55,140.00 C407.23,139.46 410.61,138.59 413.05,138.08 C415.50,137.57 420.20,136.40 423.50,135.49 C426.80,134.58 431.98,133.43 435.00,132.95 C438.02,132.47 444.33,131.37 449.00,130.50 C466.13,127.34 483.05,125.82 506.92,125.31 C533.60,124.74 534.18,124.82 546.67,130.65 C550.62,132.49 554.33,134.00 554.92,134.00 C555.51,134.00 556.00,134.34 556.00,134.76 C556.00,135.17 557.46,136.14 559.25,136.92 C565.40,139.57 589.87,156.82 590.83,159.18 C591.35,160.46 594.21,160.14 593.79,158.86 C592.58,155.25 565.91,129.04 552.85,118.64 C540.45,108.76 508.77,89.56 496.00,84.18 C494.62,83.60 490.43,81.75 486.68,80.06 C482.93,78.38 479.33,77.00 478.68,76.99 C478.03,76.99 476.15,76.09 474.50,75.00 C472.85,73.91 470.71,73.01 469.75,73.01 C468.79,73.00 468.00,72.55 468.00,72.00 C468.00,70.63 469.92,70.74 475.64,72.47 C478.31,73.27 486.35,75.33 493.50,77.04 C500.65,78.75 508.30,80.74 510.50,81.45 C512.70,82.17 516.97,83.52 520.00,84.46 C523.03,85.40 526.40,86.57 527.50,87.06 C528.60,87.55 533.10,89.12 537.50,90.54 C546.86,93.57 559.48,99.42 580.05,110.25 C586.37,113.58 605.98,125.70 607.00,126.91 C607.28,127.23 610.06,129.22 613.19,131.33 C616.32,133.44 619.92,136.06 621.19,137.15 C622.46,138.25 624.63,140.12 626.02,141.32 C627.41,142.52 630.33,145.01 632.52,146.85 C634.71,148.69 641.33,154.96 647.23,160.79 C653.13,166.61 658.21,171.12 658.52,170.82 C659.43,169.91 656.94,165.06 650.79,155.72 C647.61,150.89 645.00,146.72 645.00,146.47 C645.00,145.38 652.01,146.12 654.64,147.49 C656.21,148.32 658.29,148.99 659.26,148.99 C661.04,149.00 661.70,149.26 667.83,152.33 C669.66,153.25 671.85,154.00 672.68,154.00 C674.09,154.00 689.43,161.42 696.69,165.62 C698.44,166.63 700.20,167.13 700.61,166.73 C701.65,165.68 698.70,162.72 679.41,145.44 C663.40,131.10 650.64,121.23 637.48,113.00 C634.40,111.07 630.67,108.74 629.19,107.80 C624.68,104.96 599.93,92.94 593.00,90.23 C591.62,89.70 587.80,87.96 584.50,86.38 L 578.50 83.50 L 583.26 83.19 C585.88,83.03 590.75,83.59 594.09,84.44 C597.43,85.30 601.10,86.00 602.24,86.00 C604.47,86.00 610.80,87.68 623.22,91.58 C627.47,92.91 631.77,94.00 632.77,94.00 C633.78,94.00 635.03,94.38 635.55,94.84 C636.07,95.31 640.33,96.92 645.00,98.44 C649.67,99.95 655.53,102.07 658.00,103.16 C668.76,107.90 701.10,124.44 702.92,126.14 C704.02,127.16 705.18,128.00 705.51,128.00 C706.46,128.00 723.43,139.52 730.75,145.14 C754.20,163.12 779.04,188.60 792.04,208.00 C794.44,211.57 797.14,215.30 798.05,216.28 C799.90,218.27 810.71,225.37 828.25,236.10 C834.71,240.05 840.51,243.91 841.15,244.68 C842.75,246.61 840.31,253.78 837.57,255.19 C832.59,257.77 826.48,263.80 822.65,269.92 C816.15,280.29 813.00,287.73 813.00,292.72 C813.00,294.77 813.34,295.03 815.25,294.43 C816.49,294.05 819.30,292.43 821.50,290.84 C822.21,290.33 822.89,289.84 823.54,289.37 C830.18,284.56 833.40,282.23 835.04,283.05 C836.75,283.90 836.77,288.13 837.16,296.50 C838.06,315.31 840.02,324.90 845.13,335.39 C846.71,338.63 848.00,341.71 848.00,342.24 C848.00,342.77 848.63,344.62 849.39,346.35 C850.16,348.08 851.46,351.30 852.29,353.50 C855.00,360.68 862.13,375.46 863.74,377.25 C864.78,378.41 866.78,379.00 869.65,379.00 C872.04,379.00 874.00,379.29 874.00,379.64 C874.00,379.99 872.73,382.35 871.17,384.89 C869.61,387.43 866.86,393.33 865.05,398.00 C863.23,402.67 861.43,407.17 861.03,408.00 C860.64,408.83 859.48,414.67 858.47,421.00 C857.45,427.33 856.18,433.10 855.63,433.82 C855.08,434.55 852.95,436.00 850.89,437.05 C842.64,441.27 830.41,454.67 824.04,466.50 C819.36,475.19 819.10,475.42 816.60,473.18 C813.69,470.55 802.30,463.00 801.25,463.00 C800.78,463.00 799.89,462.49 799.26,461.86 C797.66,460.26 783.04,454.00 780.89,454.00 C779.92,454.00 778.87,453.60 778.57,453.11 C778.26,452.61 776.32,451.98 774.26,451.69 C765.16,450.42 759.00,448.38 759.00,446.64 C758.99,444.75 753.03,433.92 748.18,427.00 C738.14,412.67 729.51,404.42 718.34,398.48 C715.21,396.81 712.52,395.01 712.37,394.48 C712.21,393.94 714.32,391.74 717.04,389.59 C719.77,387.43 722.00,385.14 722.00,384.49 C722.00,383.84 719.82,380.82 717.15,377.77 C714.48,374.72 709.43,368.24 705.93,363.36 C702.43,358.49 699.10,354.01 698.53,353.41 C697.96,352.82 695.92,350.37 694.00,347.97 C683.78,335.23 661.54,312.94 656.25,310.13 C652.95,308.37 653.36,310.37 657.33,315.33 C661.93,321.07 668.02,331.15 667.46,332.07 C667.20,332.48 662.16,329.92 656.25,326.37 C650.34,322.82 640.33,317.44 634.00,314.41 C627.67,311.38 621.03,308.18 619.23,307.28 C615.63,305.50 612.00,300.43 612.00,297.19 C612.00,296.05 611.58,294.86 611.08,294.55 C610.57,294.23 609.85,292.60 609.48,290.92 C609.11,289.24 608.18,286.66 607.41,285.18 C606.64,283.71 606.01,281.99 606.01,281.36 C606.00,280.74 605.33,278.94 604.51,277.36 C603.68,275.79 603.01,273.58 603.01,272.45 C603.00,271.32 602.59,269.97 602.08,269.45 C601.58,268.93 601.02,267.41 600.83,266.08 C600.65,264.75 599.94,263.47 599.26,263.25 C597.59,262.70 595.84,267.19 594.88,274.50 C592.93,289.46 591.84,295.56 590.98,296.42 C590.42,296.98 588.59,296.92 586.28,296.25 C578.78,294.10 560.31,290.02 551.50,288.57 C538.84,286.48 508.93,285.62 494.50,286.92 C468.54,289.26 464.24,289.82 461.42,291.25 C459.82,292.07 454.45,293.52 449.50,294.47 C444.55,295.43 439.83,296.75 439.00,297.40 C438.17,298.05 435.70,299.19 433.50,299.92 C407.81,308.48 378.26,324.59 357.00,341.61 C335.18,359.09 313.53,384.03 298.66,408.83 C289.75,423.70 280.16,444.20 275.91,457.50 C274.85,460.80 273.58,464.40 273.07,465.50 C272.56,466.60 271.91,468.62 271.63,470.00 C267.13,491.37 264.96,501.11 264.06,504.00 C261.18,513.14 260.36,570.71 263.06,573.45 C263.58,573.97 264.00,576.25 264.00,578.52 C264.00,580.79 264.94,586.88 266.10,592.07 C267.25,597.26 268.53,603.08 268.93,605.00 C269.33,606.92 270.17,610.08 270.78,612.00 C271.39,613.92 273.04,619.19 274.44,623.70 C278.43,636.55 280.26,641.13 287.50,656.39 C306.21,695.89 338.40,733.29 373.90,756.77 C394.19,770.19 421.24,783.61 438.00,788.56 C441.02,789.45 444.40,790.53 445.50,790.96 C446.60,791.38 449.75,792.30 452.50,792.99 C476.28,798.96 499.62,801.89 524.00,801.95 C538.49,801.98 545.68,801.37 564.50,798.48 C581.64,795.86 584.33,795.32 590.50,793.28 C593.80,792.18 598.75,790.58 601.50,789.71 C604.25,788.84 608.97,787.16 612.00,785.99 C615.03,784.81 618.69,783.48 620.16,783.02 C622.55,782.28 645.83,770.80 652.00,767.33 C675.12,754.31 708.74,725.42 725.34,704.30 C732.36,695.37 743.54,678.63 748.24,670.00 C750.18,666.42 752.87,661.47 754.22,659.00 C755.56,656.53 757.49,652.25 758.50,649.50 C759.52,646.75 760.65,644.05 761.03,643.50 C761.40,642.95 761.96,641.60 762.27,640.50 C762.58,639.40 764.03,635.35 765.49,631.50 C767.81,625.39 769.09,621.25 773.99,604.00 C775.42,598.95 776.91,590.68 778.03,581.50 C778.57,577.10 779.45,571.34 780.00,568.70 C781.60,561.00 781.26,529.92 779.44,518.00 C777.55,505.57 775.30,493.87 773.86,488.97 C773.29,487.03 772.98,484.10 773.16,482.47 C773.47,479.78 773.84,480.20 777.12,487.00 C779.11,491.12 781.52,497.20 782.48,500.50 C783.44,503.80 784.81,508.52 785.52,511.00 C786.24,513.47 787.09,516.85 787.42,518.50 C787.74,520.15 788.93,526.00 790.07,531.50 C791.89,540.33 792.13,545.02 792.11,571.59 C792.09,597.88 791.82,603.12 789.97,613.09 C788.81,619.36 787.60,626.30 787.28,628.50 C786.97,630.70 786.10,633.39 785.35,634.47 C784.61,635.56 784.00,637.67 784.00,639.16 C784.00,640.66 783.55,642.16 783.00,642.50 C781.91,643.17 781.60,648.00 782.64,648.00 C784.65,648.00 792.99,631.40 797.95,617.50 C799.72,612.55 801.81,607.08 802.58,605.35 C803.36,603.62 804.00,601.48 804.00,600.60 C804.00,599.72 804.50,599.00 805.12,599.00 C807.36,599.00 804.15,647.21 801.75,649.59 C801.34,650.00 801.00,652.59 801.00,655.35 C801.00,658.10 800.58,661.74 800.08,663.43 C799.57,665.12 797.94,670.55 796.47,675.50 C790.69,694.87 782.18,714.44 769.73,737.00 C761.73,751.50 749.56,767.35 734.60,782.76 C728.05,789.51 722.95,795.28 723.27,795.60 C723.58,795.92 726.01,794.90 728.65,793.34 C731.30,791.78 734.25,790.05 735.23,789.50 C736.20,788.95 741.52,785.69 747.05,782.25 C752.58,778.81 757.31,776.00 757.56,776.00 C757.81,776.00 759.88,774.65 762.16,773.00 C767.11,769.42 768.37,769.24 767.45,772.25 C765.98,777.07 754.91,790.94 742.50,803.52 C718.22,828.12 697.59,842.35 663.71,857.89 C659.97,859.60 656.47,861.00 655.94,861.00 C655.41,861.00 654.19,861.43 653.24,861.95 C648.53,864.53 637.91,868.23 627.00,871.09 C624.53,871.74 621.60,872.60 620.50,873.00 C617.30,874.17 609.10,876.11 601.00,877.61 C595.82,878.57 585.24,879.00 566.75,879.01 C552.04,879.02 540.00,879.39 540.00,879.83 C540.00,880.79 546.50,884.00 548.45,884.00 C549.21,884.00 551.11,884.64 552.67,885.42 C554.23,886.20 558.20,887.60 561.50,888.51 C564.80,889.43 568.85,890.56 570.50,891.03 C572.15,891.49 577.55,892.59 582.50,893.47 C587.45,894.35 593.75,895.56 596.50,896.16 C599.25,896.76 608.14,897.47 616.25,897.75 C624.36,898.02 631.00,898.56 631.00,898.95 C631.00,899.96 622.15,903.78 618.00,904.57 C616.08,904.93 614.05,905.57 613.50,905.98 C612.44,906.77 607.71,907.65 597.00,909.04 C593.42,909.51 586.22,910.59 581.00,911.44 C575.78,912.29 564.97,913.69 557.00,914.55 ZM 742.00 291.89 C747.22,294.55 751.81,296.56 752.19,296.34 C753.24,295.76 749.18,287.20 744.67,280.50 C736.31,268.07 720.70,254.64 709.31,250.08 C705.54,248.58 704.45,249.06 703.55,252.64 C702.67,256.17 697.74,263.24 692.35,268.70 C689.96,271.13 688.00,273.71 688.00,274.44 C688.00,275.32 690.43,276.12 695.25,276.81 C707.56,278.58 726.10,283.75 728.45,286.06 C728.97,286.58 730.10,287.01 730.95,287.03 C731.80,287.05 736.78,289.24 742.00,291.89 ZM 466.50 70.00 C466.85,70.56 466.03,71.00 464.62,71.00 C463.24,71.00 461.84,70.55 461.50,70.00 C461.15,69.44 461.97,69.00 463.38,69.00 C464.76,69.00 466.16,69.45 466.50,70.00 ZM 772.98 477.75 C772.99,478.44 772.55,479.00 772.00,479.00 C771.45,479.00 771.01,477.76 771.02,476.25 C771.03,474.11 771.24,473.83 772.00,475.00 C772.53,475.83 772.98,477.06 772.98,477.75 Z" fill="rgb(59,35,96)"/>
<path d="M 545.24 740.02 C539.42,741.36 500.02,741.24 497.68,739.88 C496.68,739.30 492.41,738.40 488.18,737.88 C470.20,735.66 466.85,735.01 458.00,732.02 C454.39,730.80 453.31,730.38 446.50,727.53 C444.30,726.62 441.60,725.49 440.50,725.04 C432.00,721.55 405.47,705.99 403.00,703.05 C402.73,702.72 399.58,700.13 396.00,697.30 C384.96,688.55 361.00,662.44 361.00,659.16 C361.00,658.61 360.63,658.02 360.19,657.83 C358.88,657.30 347.71,638.26 343.27,629.00 C339.17,620.45 332.47,601.94 330.79,594.50 C323.64,562.82 322.80,537.13 327.95,508.00 C328.48,504.98 329.32,500.25 329.80,497.50 C330.29,494.75 331.17,491.38 331.75,490.00 C332.34,488.62 333.59,484.80 334.54,481.50 C335.48,478.20 336.65,475.07 337.13,474.55 C337.61,474.03 338.00,472.87 338.00,471.99 C338.00,471.10 338.94,468.38 340.08,465.94 C344.25,457.06 348.51,448.49 349.00,448.00 C349.27,447.73 350.36,445.92 351.41,444.00 C358.01,431.91 371.87,413.85 382.00,404.17 C394.60,392.12 405.21,383.34 412.49,378.92 C419.09,374.91 419.65,374.59 424.66,372.00 C427.32,370.63 429.73,369.28 430.00,369.00 C430.63,368.37 436.31,365.64 441.50,363.48 C443.70,362.57 446.69,361.19 448.15,360.41 C449.61,359.63 451.73,359.00 452.85,359.00 C453.97,359.00 455.16,358.55 455.50,358.00 C455.84,357.45 457.10,357.00 458.31,356.99 C459.51,356.99 461.79,356.32 463.36,355.49 C464.94,354.67 467.28,354.00 468.56,354.00 C469.83,354.00 471.16,353.55 471.50,353.00 C471.84,352.45 474.14,352.00 476.61,352.00 C479.08,352.00 482.31,351.39 483.80,350.64 C489.77,347.63 528.64,346.45 547.00,348.73 C563.46,350.77 586.40,356.40 589.45,359.14 C589.97,359.62 591.17,360.00 592.12,360.00 C593.06,360.00 595.11,360.65 596.67,361.44 C598.23,362.23 601.30,363.63 603.50,364.56 C613.74,368.86 628.96,377.47 636.50,383.23 C637.05,383.65 640.20,385.97 643.50,388.40 C661.68,401.74 682.88,425.73 694.04,445.57 C701.90,459.54 708.63,475.26 711.13,485.46 C711.67,487.64 712.47,489.89 712.93,490.46 C713.38,491.03 714.01,492.85 714.33,494.50 C714.65,496.15 715.84,502.23 716.98,508.00 C720.69,526.93 720.71,559.00 717.02,581.00 C715.64,589.26 713.56,597.77 712.73,598.60 C712.33,599.00 711.99,600.50 711.97,601.92 C711.95,603.34 711.28,605.37 710.47,606.44 C709.66,607.51 709.00,609.20 709.00,610.20 C709.00,611.21 708.62,612.81 708.15,613.76 C707.68,614.72 706.60,617.08 705.76,619.00 C704.91,620.92 703.49,624.14 702.61,626.15 C701.72,628.16 701.00,630.03 701.00,630.31 C701.00,631.21 692.84,645.28 688.13,652.50 C680.87,663.64 676.66,668.70 663.79,681.76 C645.84,699.98 626.78,713.73 607.17,722.60 C602.04,724.92 597.58,727.09 597.25,727.41 C596.93,727.74 595.80,728.00 594.74,728.00 C593.68,728.00 591.61,728.64 590.15,729.41 C588.69,730.19 584.80,731.58 581.50,732.51 C578.20,733.44 574.15,734.58 572.50,735.05 C570.85,735.51 565.00,736.60 559.50,737.47 C554.00,738.33 547.58,739.48 545.24,740.02 ZM 512.00 662.40 C518.32,666.03 524.63,669.00 526.01,669.00 C527.40,669.00 531.61,667.20 535.38,665.00 C539.14,662.80 542.35,661.00 542.51,661.00 C542.67,661.00 545.65,659.27 549.15,657.16 C552.64,655.04 557.97,651.93 561.00,650.24 C571.35,644.46 629.75,610.50 632.13,608.88 L 634.50 607.26 L 634.77 547.11 C634.95,507.66 634.70,486.30 634.03,485.05 C633.47,484.00 629.63,481.04 625.50,478.47 C621.38,475.90 618.00,473.20 618.00,472.48 C618.00,471.75 619.46,470.85 621.25,470.46 C623.04,470.08 624.95,469.42 625.50,469.00 C626.05,468.58 628.08,467.98 630.00,467.67 C642.40,465.65 650.47,463.93 651.28,463.12 C652.75,461.65 651.15,460.00 648.25,460.00 C643.88,460.00 619.45,454.01 613.50,451.49 C603.54,447.25 598.52,444.30 593.13,439.50 C589.21,436.00 582.00,425.76 582.00,423.68 C582.00,422.89 581.33,421.68 580.50,421.00 C579.67,420.32 579.00,418.94 579.00,417.94 C579.00,416.94 578.60,415.87 578.11,415.57 C577.63,415.27 576.92,413.39 576.54,411.39 C576.17,409.39 575.46,407.02 574.96,406.13 C573.62,403.69 571.00,392.27 571.00,388.82 C571.00,384.93 568.12,375.00 566.99,375.00 C565.15,375.00 564.13,379.02 561.41,397.00 C561.11,398.92 560.49,401.40 560.02,402.50 C559.55,403.60 558.38,406.98 557.42,410.00 C555.24,416.84 552.34,423.37 549.33,428.22 C548.37,429.75 547.78,430.75 546.92,431.10 C545.37,431.74 542.95,430.27 536.00,426.05 L 535.58 425.80 C531.23,423.16 526.81,421.00 525.77,421.00 C524.72,421.00 521.98,422.26 519.68,423.80 C517.38,425.34 512.12,428.55 508.00,430.93 C503.88,433.31 490.83,441.00 479.00,448.03 C467.17,455.06 449.62,465.33 440.00,470.85 C430.38,476.37 421.70,481.48 420.73,482.19 C419.08,483.42 418.96,487.47 418.85,545.81 L 418.74 608.13 L 421.12 609.81 C423.46,611.48 451.97,627.98 471.60,639.04 C477.16,642.17 485.94,647.22 491.10,650.26 C496.27,653.31 505.67,658.77 512.00,662.40 Z" fill="rgb(210,66,112)"/>
<path d="M 512.00 662.40 C505.67,658.77 496.27,653.31 491.10,650.26 C485.94,647.22 477.16,642.17 471.60,639.04 C451.97,627.98 423.46,611.48 421.12,609.81 L 418.74 608.13 L 418.85 545.81 C418.96,487.47 419.08,483.42 420.73,482.19 C421.70,481.48 430.38,476.37 440.00,470.85 C449.62,465.33 467.17,455.06 479.00,448.03 C490.83,441.00 503.88,433.31 508.00,430.93 C512.12,428.55 517.38,425.34 519.68,423.80 C521.98,422.26 524.72,421.00 525.77,421.00 C526.81,421.00 531.23,423.16 535.58,425.80 L 536.00 426.05 C542.95,430.27 545.37,431.74 546.92,431.10 C547.78,430.75 548.37,429.75 549.33,428.22 C552.34,423.37 555.24,416.84 557.42,410.00 C558.38,406.98 559.55,403.60 560.02,402.50 C560.49,401.40 561.11,398.92 561.41,397.00 C564.13,379.02 565.15,375.00 566.99,375.00 C568.12,375.00 571.00,384.93 571.00,388.82 C571.00,392.27 573.62,403.69 574.96,406.13 C575.46,407.02 576.17,409.39 576.54,411.39 C576.92,413.39 577.63,415.27 578.11,415.57 C578.60,415.87 579.00,416.94 579.00,417.94 C579.00,418.94 579.67,420.32 580.50,421.00 C581.33,421.68 582.00,422.89 582.00,423.68 C582.00,425.76 589.21,436.00 593.13,439.50 C598.52,444.30 603.54,447.25 613.50,451.49 C619.45,454.01 643.88,460.00 648.25,460.00 C651.15,460.00 652.75,461.65 651.28,463.12 C650.47,463.93 642.40,465.65 630.00,467.67 C628.08,467.98 626.05,468.58 625.50,469.00 C624.95,469.42 623.04,470.08 621.25,470.46 C619.46,470.85 618.00,471.75 618.00,472.48 C618.00,473.20 621.38,475.90 625.50,478.47 C629.63,481.04 633.47,484.00 634.03,485.05 C634.70,486.30 634.95,507.66 634.77,547.11 L 634.50 607.26 L 632.13 608.88 C629.75,610.50 571.35,644.46 561.00,650.24 C557.97,651.93 552.64,655.04 549.15,657.16 C545.65,659.27 542.67,661.00 542.51,661.00 C542.35,661.00 539.14,662.80 535.38,665.00 C531.61,667.20 527.40,669.00 526.01,669.00 C524.63,669.00 518.32,666.03 512.00,662.40 ZM 565.52 543.04 C566.73,544.99 567.68,542.98 568.93,535.80 C569.63,531.78 570.56,527.38 571.00,526.00 C571.44,524.62 572.58,520.80 573.55,517.50 C577.23,504.92 584.47,492.25 592.16,484.95 C600.27,477.24 623.84,466.61 637.50,464.50 C648.64,462.78 648.68,461.95 637.75,459.61 C633.21,458.64 628.47,457.43 627.20,456.92 C625.94,456.42 624.02,456.00 622.94,456.00 C621.86,456.00 620.19,455.60 619.24,455.12 C615.46,453.21 609.87,451.00 608.83,451.00 C608.22,451.00 603.92,448.47 599.27,445.37 C590.27,439.39 583.68,431.79 579.90,423.05 C578.82,420.55 577.50,417.72 576.96,416.76 C576.43,415.81 576.00,414.21 576.00,413.20 C576.00,412.20 575.34,410.51 574.53,409.44 C573.72,408.37 573.05,406.54 573.03,405.37 C573.01,404.20 572.33,401.63 571.50,399.65 C570.67,397.68 569.99,394.59 569.98,392.78 C569.97,388.59 567.68,380.88 566.47,380.91 C565.96,380.92 564.98,384.44 564.30,388.72 C562.25,401.69 561.03,405.87 555.36,419.33 C547.39,438.27 531.70,450.69 509.00,456.04 C483.38,462.08 480.57,463.30 489.69,464.48 C498.49,465.61 515.83,469.91 516.60,471.16 C516.88,471.62 517.87,472.00 518.79,472.00 C521.23,472.00 532.85,477.87 537.47,481.44 C545.43,487.58 550.30,493.97 554.04,503.18 C555.23,506.10 556.60,509.40 557.08,510.50 C558.85,514.57 560.97,521.56 560.99,523.35 C560.99,524.37 561.63,526.62 562.41,528.35 C563.18,530.08 564.06,533.87 564.36,536.77 C564.66,539.67 565.19,542.49 565.52,543.04 ZM 545.24 740.02 C547.58,739.48 554.00,738.33 559.50,737.47 C565.00,736.60 570.85,735.51 572.50,735.05 C574.15,734.58 578.20,733.44 581.50,732.51 C584.80,731.58 588.69,730.19 590.15,729.41 C591.61,728.64 593.68,728.00 594.74,728.00 C595.80,728.00 596.93,727.74 597.25,727.41 C597.58,727.09 602.04,724.92 607.17,722.60 C626.78,713.73 645.84,699.98 663.79,681.76 C676.66,668.70 680.87,663.64 688.13,652.50 C692.84,645.28 701.00,631.21 701.00,630.31 C701.00,630.03 701.72,628.16 702.61,626.15 C703.49,624.14 704.91,620.92 705.76,619.00 C706.60,617.08 707.68,614.72 708.15,613.76 C708.62,612.81 709.00,611.21 709.00,610.20 C709.00,609.20 709.66,607.51 710.47,606.44 C711.28,605.37 711.95,603.34 711.97,601.92 C711.99,600.50 712.33,599.00 712.73,598.60 C713.56,597.77 715.64,589.26 717.02,581.00 C720.71,559.00 720.69,526.93 716.98,508.00 C715.84,502.23 714.65,496.15 714.33,494.50 C714.01,492.85 713.38,491.03 712.93,490.46 C712.47,489.89 711.67,487.64 711.13,485.46 C708.63,475.26 701.90,459.54 694.04,445.57 C682.88,425.73 661.68,401.74 643.50,388.40 C640.20,385.97 637.05,383.65 636.50,383.23 C628.96,377.47 613.74,368.86 603.50,364.56 C601.30,363.63 598.23,362.23 596.67,361.44 C595.11,360.65 593.06,360.00 592.12,360.00 C591.17,360.00 589.97,359.62 589.45,359.14 C586.40,356.40 563.46,350.77 547.00,348.73 C528.64,346.45 489.77,347.63 483.80,350.64 C482.31,351.39 479.08,352.00 476.61,352.00 C474.14,352.00 471.84,352.45 471.50,353.00 C471.16,353.55 469.83,354.00 468.56,354.00 C467.28,354.00 464.94,354.67 463.36,355.49 C461.79,356.32 459.51,356.99 458.31,356.99 C457.10,357.00 455.84,357.45 455.50,358.00 C455.16,358.55 453.97,359.00 452.85,359.00 C451.73,359.00 449.61,359.63 448.15,360.41 C446.69,361.19 443.70,362.57 441.50,363.48 C436.31,365.64 430.63,368.37 430.00,369.00 C429.73,369.28 427.32,370.63 424.66,372.00 C419.65,374.59 419.09,374.91 412.49,378.92 C405.21,383.34 394.60,392.12 382.00,404.17 C371.87,413.85 358.01,431.91 351.41,444.00 C350.36,445.92 349.27,447.73 349.00,448.00 C348.51,448.49 344.25,457.06 340.08,465.94 C338.94,468.38 338.00,471.10 338.00,471.99 C338.00,472.87 337.61,474.03 337.13,474.55 C336.65,475.07 335.48,478.20 334.54,481.50 C333.59,484.80 332.34,488.62 331.75,490.00 C331.17,491.38 330.29,494.75 329.80,497.50 C329.32,500.25 328.48,504.98 327.95,508.00 C323.03,535.82 323.58,560.52 329.87,590.29 C327.98,582.95 327.00,576.93 326.05,568.50 C325.43,563.00 324.44,555.69 323.86,552.26 C322.80,546.07 323.10,537.56 325.10,517.50 C326.95,498.95 334.32,474.62 343.73,456.00 C350.93,441.75 350.66,442.22 357.94,431.50 C371.20,411.99 390.55,392.42 409.00,379.86 C420.17,372.27 441.42,361.00 444.58,361.00 C445.36,361.00 446.00,360.66 446.01,360.25 C446.01,359.84 448.83,358.68 452.26,357.67 C455.69,356.67 459.69,355.20 461.15,354.42 C462.61,353.64 464.89,353.00 466.20,353.00 C467.52,353.00 469.03,352.60 469.55,352.10 C470.07,351.61 472.30,350.95 474.50,350.64 C476.70,350.33 482.33,349.34 487.00,348.44 C492.65,347.34 502.87,346.64 517.50,346.35 C536.23,345.97 541.28,346.20 551.50,347.90 C570.28,351.03 576.75,352.64 589.50,357.41 C598.97,360.94 599.04,360.97 611.16,366.92 C642.35,382.22 668.36,404.94 688.83,434.74 C693.55,441.61 705.77,465.18 707.89,471.50 C708.63,473.70 709.78,476.85 710.46,478.50 C714.47,488.29 719.30,508.58 720.68,521.50 C722.32,536.80 721.40,569.29 719.06,579.00 C718.60,580.92 717.45,585.88 716.51,590.00 C714.52,598.73 712.35,605.87 709.96,611.50 C709.02,613.70 707.92,616.62 707.50,618.00 C704.29,628.54 689.13,654.94 679.65,666.50 C665.48,683.78 649.52,698.52 632.67,709.88 C618.69,719.32 593.24,731.23 581.00,734.08 C579.08,734.52 574.80,735.63 571.50,736.54 C568.20,737.44 563.03,738.55 560.00,739.00 C556.97,739.45 552.25,740.28 549.50,740.85 C537.74,743.26 494.12,742.74 489.22,740.12 C488.07,739.50 485.54,739.00 483.59,739.00 C481.64,739.00 478.34,738.38 476.27,737.62 C474.20,736.86 470.48,735.68 468.00,734.99 C467.36,734.81 466.75,734.64 466.14,734.47 C470.99,735.66 476.50,736.44 488.18,737.88 C492.41,738.40 496.68,739.30 497.68,739.88 C500.02,741.24 539.42,741.36 545.24,740.02 ZM 124.12 427.07 C123.75,428.31 123.37,429.89 123.06,431.50 C121.42,439.95 120.31,445.37 118.45,454.00 C116.57,462.76 115.69,468.63 114.10,483.00 C113.47,488.77 112.51,497.10 111.97,501.50 C110.68,512.13 110.71,549.36 112.03,565.00 C113.66,584.33 117.27,608.64 119.52,615.50 C120.24,617.70 121.13,622.08 121.49,625.23 C121.56,625.85 121.64,626.46 121.73,627.03 C121.57,626.36 121.35,625.71 121.10,625.24 C118.56,620.35 114.84,601.42 113.01,584.00 C112.51,579.33 111.64,572.58 111.07,569.00 C109.68,560.22 109.69,502.79 111.09,495.89 C111.69,492.92 112.57,486.45 113.04,481.50 C114.26,468.78 115.77,458.19 116.53,456.95 C116.89,456.36 117.56,453.55 118.01,450.69 C119.33,442.38 121.86,432.72 124.12,427.07 ZM 557.00 914.55 C564.97,913.69 575.78,912.29 581.00,911.44 C586.22,910.59 593.42,909.51 597.00,909.04 C600.00,908.65 602.54,908.30 604.65,907.98 C603.15,908.30 601.51,908.68 599.89,909.09 C585.42,912.69 575.67,914.06 544.50,916.90 C526.22,918.56 483.53,917.49 473.00,915.11 C470.52,914.55 466.39,914.07 463.82,914.04 C461.24,914.02 457.87,913.52 456.32,912.93 C454.78,912.34 450.81,911.46 447.51,910.96 C433.37,908.84 429.53,907.99 422.02,905.18 C430.89,906.57 435.12,907.32 443.50,908.96 C449.55,910.14 456.52,911.53 459.00,912.06 C480.92,916.70 526.25,917.85 557.00,914.55 ZM 781.50 497.53 C780.33,494.24 778.61,490.08 777.12,487.00 C773.84,480.20 773.47,479.78 773.16,482.47 C772.98,484.10 773.29,487.03 773.86,488.97 C775.30,493.87 777.55,505.57 779.44,518.00 C781.26,529.92 781.60,561.00 780.00,568.70 C779.45,571.34 778.57,577.10 778.03,581.50 C776.91,590.68 775.42,598.95 773.99,604.00 C773.08,607.19 772.30,609.93 771.61,612.31 C772.23,609.73 772.71,607.29 773.06,605.00 C773.59,601.42 774.45,596.03 774.98,593.00 C779.02,569.65 780.00,560.50 780.00,546.29 C780.00,533.89 777.67,509.47 776.06,505.00 C775.56,503.62 774.91,500.48 774.62,498.00 C774.32,495.52 773.37,490.58 772.50,487.00 C771.63,483.42 770.65,478.59 770.33,476.25 C770.00,473.91 769.35,472.00 768.87,472.00 C768.39,472.00 768.00,470.88 768.00,469.50 C768.00,464.86 769.48,466.96 774.17,478.26 C777.09,485.30 779.49,491.60 781.50,497.53 ZM 135.34 672.20 C137.72,678.61 140.05,684.32 140.73,685.00 C142.07,686.33 142.16,685.81 141.57,680.24 C139.73,662.99 139.39,654.23 140.18,644.82 C140.67,639.14 141.47,629.33 141.97,623.00 C143.00,609.97 144.29,601.38 145.37,600.29 C146.61,599.05 147.97,602.28 147.98,606.50 C147.99,608.70 148.67,613.42 149.49,617.00 C151.78,626.92 155.59,642.44 156.92,647.28 C156.62,646.35 156.31,645.37 156.04,644.50 C155.38,642.30 153.97,638.59 152.92,636.26 C151.86,633.93 151.00,630.86 151.00,629.45 C151.00,628.03 150.56,626.04 150.02,625.04 C149.48,624.03 148.51,618.88 147.86,613.60 C147.21,608.32 146.35,604.00 145.94,604.00 C144.95,604.00 144.20,609.66 142.83,627.50 C141.39,646.15 141.24,663.06 142.37,678.00 L 143.24 689.50 L 141.12 687.60 C139.95,686.55 139.00,684.97 139.00,684.10 C138.99,683.33 137.42,678.24 135.34,672.20 ZM 552.80 133.31 C551.23,132.70 548.99,131.73 546.67,130.65 C534.18,124.82 533.60,124.74 506.92,125.31 C483.05,125.82 466.13,127.34 449.00,130.50 C444.33,131.37 438.02,132.47 435.00,132.95 C431.98,133.43 426.80,134.58 423.50,135.49 C420.20,136.40 415.50,137.57 413.05,138.08 C411.16,138.48 408.71,139.09 406.92,139.59 C409.73,138.67 411.06,138.12 413.00,137.23 C414.92,136.35 418.30,135.29 420.50,134.86 C422.70,134.44 427.65,133.39 431.50,132.53 C435.35,131.67 441.20,130.53 444.50,130.00 C447.80,129.47 452.07,128.58 453.99,128.02 C455.91,127.46 459.74,126.99 462.49,126.98 C465.25,126.97 471.10,126.31 475.50,125.52 C481.04,124.51 491.20,124.06 508.54,124.03 L 533.57 124.00 L 543.54 128.99 C547.21,130.83 550.70,132.44 552.80,133.31 ZM 800.53 661.29 C800.81,659.49 801.00,657.22 801.00,655.35 C801.00,652.59 801.34,650.00 801.75,649.59 C804.15,647.21 807.36,599.00 805.12,599.00 C804.50,599.00 804.00,599.72 804.00,600.60 C804.00,601.41 803.45,603.31 802.75,604.96 C802.91,604.32 803.00,603.54 803.00,602.76 C803.00,598.64 805.09,593.00 806.62,593.00 C808.29,593.00 807.36,626.16 805.43,635.20 C804.64,638.88 804.00,643.57 804.00,645.63 C804.00,647.68 803.56,650.74 803.03,652.43 C802.51,654.08 801.40,658.03 800.53,661.29 ZM 266.04 591.79 C264.91,586.66 264.00,580.75 264.00,578.52 C264.00,576.25 263.58,573.97 263.06,573.45 C260.36,570.71 261.18,513.14 264.06,504.00 C264.66,502.09 265.81,497.19 267.82,487.90 C265.09,501.10 264.09,509.99 262.99,529.00 C261.80,549.74 263.21,578.58 266.04,591.79 ZM 570.50 891.02 C570.71,891.08 570.92,891.13 571.13,891.19 C570.88,891.13 570.67,891.08 570.50,891.03 C568.85,890.56 564.80,889.43 561.50,888.51 C558.20,887.60 554.23,886.20 552.67,885.42 C551.11,884.64 549.21,884.00 548.45,884.00 C546.50,884.00 540.00,880.79 540.00,879.83 C540.00,879.39 552.04,879.02 566.75,879.01 C580.57,879.01 589.98,878.76 596.01,878.24 C579.12,880.96 573.54,881.25 558.79,880.71 C549.83,880.38 543.17,880.38 544.00,880.71 C544.83,881.03 545.72,881.57 546.00,881.90 C547.07,883.19 555.79,886.90 561.50,888.50 C564.80,889.43 568.85,890.56 570.50,891.02 ZM 791.51 601.81 C791.99,595.61 792.09,587.41 792.11,571.59 C792.12,552.55 792.01,544.74 791.27,538.60 C794.73,560.34 794.72,578.38 791.51,601.81 ZM 621.50 903.59 C625.80,902.15 631.00,899.72 631.00,898.95 C631.00,898.56 624.36,898.02 616.25,897.75 C608.14,897.47 599.25,896.76 596.50,896.16 C594.17,895.66 589.29,894.71 584.84,893.90 C596.02,895.53 609.72,896.49 623.25,896.50 C632.09,896.50 635.00,896.82 635.00,897.77 C635.00,898.47 633.99,899.42 632.75,899.88 C627.85,901.71 624.66,902.77 621.50,903.59 ZM 473.79 71.93 C469.50,70.74 468.00,70.79 468.00,72.00 C468.00,72.55 468.79,73.00 469.75,73.01 C470.70,73.01 472.80,73.89 474.44,74.96 C473.26,74.43 471.63,74.04 470.31,74.03 C468.55,74.01 466.87,73.60 466.57,73.11 C466.27,72.63 464.33,71.91 462.26,71.52 C460.19,71.14 458.05,70.45 457.50,70.00 C456.95,69.55 455.15,69.02 453.50,68.84 C449.97,68.44 449.49,66.64 452.79,66.18 C455.53,65.79 467.51,68.68 470.42,70.43 C471.26,70.94 472.24,71.40 473.79,71.93 ZM 802.15 606.37 C801.18,608.72 799.45,613.30 797.95,617.50 C792.99,631.40 784.65,648.00 782.64,648.00 C781.60,648.00 781.91,643.17 783.00,642.50 C783.55,642.16 784.00,640.66 784.00,639.16 C784.00,637.67 784.61,635.56 785.35,634.47 C785.97,633.57 786.67,631.57 787.08,629.66 C786.99,630.18 786.92,630.63 786.86,631.00 C786.38,634.03 785.75,637.55 785.46,638.83 C784.46,643.16 787.00,640.02 790.44,632.66 C792.28,628.72 795.41,622.04 797.39,617.81 C799.38,613.58 801.00,609.45 801.00,608.62 C801.00,607.79 801.45,606.84 802.00,606.50 C802.05,606.47 802.10,606.43 802.15,606.37 ZM 601.30 85.92 C599.68,85.72 596.78,85.13 594.09,84.44 C590.75,83.59 585.88,83.03 583.26,83.19 L 578.50 83.50 L 584.50 86.38 C585.10,86.67 585.73,86.96 586.35,87.25 C584.81,86.55 582.75,86.00 581.61,86.00 C580.38,86.00 578.51,85.34 577.44,84.53 C576.37,83.72 574.38,83.03 573.00,83.00 C570.11,82.92 563.42,78.01 566.19,78.00 C567.12,78.00 568.16,78.45 568.50,79.00 C568.84,79.55 571.54,80.00 574.50,80.00 C577.46,80.00 580.13,80.40 580.43,80.89 C580.74,81.39 582.68,82.00 584.74,82.26 C586.81,82.52 591.11,83.47 594.30,84.37 C596.88,85.09 599.70,85.71 601.30,85.92 ZM 652.90 146.83 C649.75,145.92 645.00,145.57 645.00,146.47 C645.00,146.72 647.61,150.89 650.79,155.72 C656.71,164.70 659.24,169.54 658.60,170.70 C658.79,169.42 647.13,151.12 643.87,147.63 C640.44,143.95 642.36,141.52 646.76,143.96 C648.37,144.86 650.67,145.92 652.90,146.83 ZM 845.65 336.48 C845.48,336.12 845.31,335.76 845.13,335.39 C840.02,324.90 838.06,315.31 837.16,296.50 C837.08,294.76 837.02,293.20 836.95,291.82 C837.65,299.75 839.72,313.96 841.00,319.00 C841.48,320.92 842.54,324.75 843.34,327.50 C844.14,330.25 845.11,333.96 845.48,335.74 C845.53,335.99 845.59,336.24 845.65,336.48 ZM 763.28 779.43 C765.49,776.32 766.97,773.81 767.45,772.25 C768.37,769.24 767.11,769.42 762.16,773.00 C759.88,774.65 757.81,776.00 757.56,776.00 C757.31,776.00 752.58,778.81 747.05,782.25 C746.49,782.60 745.94,782.94 745.39,783.28 C751.71,779.23 758.46,774.61 762.78,771.31 C767.33,767.84 771.27,765.00 771.53,765.00 C773.34,765.00 769.48,771.29 763.28,779.43 ZM 712.61 280.43 C706.85,278.93 700.49,277.56 695.25,276.81 C690.43,276.12 688.00,275.32 688.00,274.44 C688.00,273.71 689.96,271.13 692.35,268.70 C697.74,263.24 702.67,256.17 703.55,252.64 C704.15,250.26 704.83,249.25 706.32,249.28 C704.84,249.34 704.16,250.77 702.97,254.50 C701.84,258.05 699.51,262.53 698.02,264.02 C697.74,264.31 695.72,266.45 693.54,268.78 C689.85,272.73 689.69,273.12 691.25,274.68 C692.17,275.60 695.08,276.69 697.71,277.11 C701.98,277.79 707.46,279.04 712.61,280.43 ZM 596.86 791.20 C594.67,791.91 592.33,792.67 590.50,793.28 C584.44,795.28 581.74,795.84 565.40,798.35 C566.00,798.17 566.44,797.99 566.64,797.84 C567.86,796.87 579.12,794.33 588.00,793.01 C591.07,792.55 593.87,792.00 596.86,791.20 ZM 434.73 299.48 C436.55,298.79 438.33,297.93 439.00,297.40 C439.83,296.75 444.55,295.43 449.50,294.47 C454.45,293.52 459.82,292.07 461.42,291.25 C463.69,290.10 466.89,289.52 481.46,288.12 C480.21,288.34 478.92,288.60 477.50,288.89 C471.45,290.14 463.25,291.75 459.29,292.49 C451.75,293.88 445.20,295.75 443.50,296.99 C442.95,297.39 440.93,298.02 439.01,298.38 C437.79,298.61 436.36,298.99 434.73,299.48 ZM 593.47 284.79 C593.89,281.97 594.35,278.56 594.88,274.50 C595.84,267.19 597.59,262.70 599.26,263.25 C599.94,263.47 600.65,264.75 600.83,266.08 C601.02,267.41 601.58,268.93 602.08,269.45 C602.59,269.97 603.00,271.32 603.01,272.45 C603.01,273.58 603.68,275.79 604.51,277.36 C605.27,278.83 605.91,280.49 606.00,281.22 C605.40,279.47 604.43,277.24 603.50,275.57 C602.26,273.33 600.93,270.04 600.54,268.25 C600.16,266.46 599.45,265.00 598.97,265.00 C597.60,265.00 595.29,273.47 593.47,284.79 ZM 495.92 286.80 C505.68,286.06 521.23,286.18 534.25,286.92 C529.23,286.76 523.02,286.68 515.00,286.67 C506.49,286.66 500.52,286.68 495.92,286.80 ZM 466.50 70.00 C466.16,69.45 464.76,69.00 463.38,69.00 C461.97,69.00 461.15,69.44 461.50,70.00 C461.84,70.55 463.24,71.00 464.62,71.00 C466.03,71.00 466.85,70.56 466.50,70.00 ZM 296.38 412.73 C297.14,411.40 297.90,410.10 298.66,408.83 C313.53,384.03 335.18,359.09 357.00,341.61 C359.45,339.65 362.01,337.70 364.66,335.77 C355.14,342.77 347.03,349.90 336.91,359.97 C321.69,375.11 307.65,393.55 296.38,412.73 ZM 772.98 477.75 C772.98,477.06 772.53,475.83 772.00,475.00 C771.24,473.83 771.03,474.11 771.02,476.25 C771.01,477.76 771.45,479.00 772.00,479.00 C772.55,479.00 772.99,478.44 772.98,477.75 ZM 387.60 320.95 C399.85,313.88 412.80,307.64 425.18,302.90 C414.00,307.35 399.55,314.27 387.60,320.95 ZM 491.56 800.11 C483.35,799.18 475.18,797.90 467.00,796.26 C474.05,797.58 483.75,799.10 491.56,800.11 ZM 539.74 801.53 C534.84,801.86 530.06,801.96 524.00,801.95 C520.42,801.94 516.87,801.87 513.33,801.74 C522.34,801.98 532.34,801.91 539.74,801.53 ZM 836.70 287.96 C836.44,285.12 836.02,283.53 835.04,283.05 C834.64,282.85 834.14,282.83 833.52,283.00 C836.17,282.04 836.53,283.80 836.70,287.96 ZM 611.06 294.54 C611.07,294.54 611.07,294.54 611.08,294.55 C611.58,294.86 612.00,296.05 612.00,297.19 C612.00,298.88 612.99,301.07 614.45,303.03 C613.01,301.17 612.00,299.15 612.00,297.75 C612.00,297.11 611.61,295.81 611.06,294.54 ZM 785.99 512.68 C785.83,512.09 785.68,511.53 785.52,511.00 C784.81,508.52 783.44,503.80 782.48,500.50 C782.47,500.45 782.45,500.40 782.44,500.35 C783.81,504.58 784.98,508.64 785.99,512.68 ZM 848.00 341.66 C848.00,342.50 848.63,344.62 849.39,346.35 C848.63,344.62 848.00,342.77 848.00,342.24 C848.00,341.95 847.62,340.91 847.02,339.51 C847.04,339.52 847.06,339.54 847.08,339.55 C847.58,339.86 848.00,340.81 848.00,341.66 ZM 159.03 655.55 C159.33,656.64 159.71,657.77 160.03,658.50 C160.34,659.21 161.12,661.34 162.03,663.94 C161.12,661.40 160.32,659.38 159.97,658.76 C159.51,657.94 159.13,656.60 159.03,655.55 ZM 610.30 907.00 C612.06,906.63 613.08,906.30 613.50,905.98 C613.84,905.73 614.73,905.39 615.81,905.08 C614.69,905.46 613.83,905.84 613.55,906.11 C613.03,906.60 611.63,907.00 610.44,907.00 C610.40,907.00 610.35,907.00 610.30,907.00 ZM 787.84 699.77 C782.98,711.68 777.17,723.52 769.73,737.00 C777.05,723.75 783.00,711.52 787.84,699.77 ZM 121.96 628.30 C122.31,630.05 122.74,631.34 123.07,631.54 C123.58,631.86 124.00,633.24 124.00,634.62 C124.00,633.24 123.55,631.84 123.00,631.50 C122.45,631.16 122.00,630.00 122.00,628.93 C122.00,628.73 121.99,628.52 121.96,628.30 ZM 130.01 406.97 C127.91,413.77 126.00,420.48 126.00,421.50 C126.00,422.40 125.76,423.43 125.42,424.09 C125.76,423.16 126.00,422.00 126.00,421.21 C126.00,420.31 127.92,413.70 130.01,406.97 ZM 606.62 283.46 C606.84,284.02 607.12,284.62 607.41,285.18 C607.61,285.56 607.82,286.02 608.03,286.51 C607.59,286.18 607.01,284.90 606.62,283.46 ZM 659.33 148.99 L 659.26 148.99 C658.35,148.99 656.44,148.39 654.90,147.63 C656.90,148.39 658.60,148.93 659.33,148.99 ZM 658.56 170.76 C658.55,170.78 658.53,170.80 658.52,170.82 C658.21,171.12 653.13,166.61 647.23,160.79 C653.04,166.52 658.08,170.95 658.56,170.76 ZM 475.86 75.83 C477.08,76.51 478.21,76.99 478.68,76.99 C479.33,77.00 482.93,78.38 486.68,80.06 C482.93,78.38 479.30,77.00 478.62,77.00 C478.03,77.00 476.86,76.50 475.86,75.83 ZM 789.71 529.76 C789.05,526.58 788.41,523.43 787.96,521.20 C788.59,524.14 789.18,526.99 789.71,529.76 ZM 414.44 903.86 C413.49,903.68 412.72,903.36 412.50,903.00 C412.16,902.45 411.02,902.00 409.97,902.00 C411.02,902.00 412.13,902.40 412.43,902.89 C412.62,903.19 413.40,903.55 414.44,903.86 ZM 744.72 801.25 C743.97,802.03 743.23,802.79 742.50,803.53 C735.73,810.38 729.25,816.43 722.68,821.93 C729.25,816.43 735.73,810.38 742.50,803.52 C743.24,802.76 743.98,802.01 744.72,801.25 ZM 591.98 293.49 C592.28,292.17 592.60,290.39 592.97,288.08 C592.95,288.22 592.93,288.36 592.91,288.50 C592.65,290.32 592.31,292.08 591.98,293.49 ZM 612.89 875.11 C616.21,874.32 618.95,873.57 620.50,873.00 C618.72,873.65 616.09,874.38 612.89,875.11 ZM 270.11 477.18 C270.58,474.95 271.09,472.56 271.63,470.00 C271.91,468.63 272.56,466.60 273.07,465.50 C272.56,466.60 271.92,468.63 271.64,470.00 C271.46,470.84 270.87,473.63 270.11,477.18 ZM 586.67 87.41 C588.36,88.20 590.15,89.01 591.46,89.59 C589.89,88.92 587.93,88.03 586.67,87.41 ZM 796.29 676.09 C796.35,675.89 796.41,675.70 796.47,675.50 C797.07,673.50 797.69,671.41 798.25,669.53 C797.61,671.76 796.96,673.94 796.29,676.09 ZM 594.83 90.99 C598.24,92.44 603.63,94.94 609.17,97.60 C603.79,95.02 598.48,92.56 594.83,90.99 ZM 609.06 289.36 C609.23,289.92 609.38,290.45 609.48,290.92 L 609.50 290.99 C609.29,290.38 609.14,289.81 609.06,289.36 ZM 453.74 793.30 C453.33,793.20 452.91,793.09 452.50,792.99 C450.84,792.57 449.03,792.07 447.62,791.65 C449.18,792.11 451.31,792.68 453.74,793.30 ZM 342.76 627.92 C342.93,628.29 343.10,628.66 343.27,629.00 C344.59,631.76 346.51,635.38 348.59,639.12 C346.51,635.38 344.59,631.76 343.27,629.00 C343.11,628.66 342.94,628.30 342.76,627.92 ZM 735.55 789.31 C735.42,789.39 735.31,789.45 735.23,789.50 C734.25,790.05 731.30,791.78 728.65,793.34 C731.30,791.78 734.25,790.05 735.22,789.50 C735.33,789.44 735.44,789.37 735.55,789.31 ZM 129.36 654.17 C129.34,654.10 129.33,654.05 129.32,654.00 C129.06,652.63 128.48,650.62 128.02,649.52 C128.48,650.62 129.06,652.63 129.32,654.00 C129.33,654.05 129.35,654.11 129.36,654.17 ZM 554.98 134.00 C554.96,134.00 554.94,134.00 554.92,134.00 C554.89,134.00 554.85,134.00 554.80,133.99 C554.86,133.99 554.92,133.99 554.98,134.00 Z" fill="rgb(220,108,151)"/>
<path d="M 0.00 512.00 L 0.00 0.00 L 512.00 0.00 L 1024.00 0.00 L 1024.00 512.00 L 1024.00 1024.00 L 512.00 1024.00 L 0.00 1024.00 L 0.00 512.00 ZM 544.50 916.90 C575.67,914.06 585.42,912.69 599.89,909.09 C604.50,907.94 609.25,907.00 610.44,907.00 C611.63,907.00 613.03,906.60 613.55,906.11 C614.07,905.61 616.53,904.76 619.00,904.20 C623.11,903.28 626.57,902.19 632.75,899.88 C633.99,899.42 635.00,898.47 635.00,897.77 C635.00,896.82 632.09,896.50 623.25,896.50 C603.06,896.49 582.49,894.36 570.50,891.02 C568.85,890.56 564.80,889.43 561.50,888.50 C555.79,886.90 547.07,883.19 546.00,881.90 C545.72,881.57 544.83,881.03 544.00,880.71 C543.17,880.38 549.83,880.38 558.79,880.71 C574.90,881.30 580.08,880.90 601.00,877.42 C609.58,875.99 616.82,874.35 620.50,873.00 C621.60,872.60 624.53,871.74 627.00,871.09 C637.91,868.23 648.53,864.53 653.24,861.95 C654.19,861.43 655.41,861.00 655.94,861.00 C656.47,861.00 659.97,859.60 663.71,857.89 C697.58,842.36 718.20,828.13 742.50,803.53 C757.27,788.57 775.03,765.00 771.53,765.00 C771.27,765.00 767.33,767.84 762.78,771.31 C755.90,776.56 742.87,785.16 735.22,789.50 C734.25,790.05 731.30,791.78 728.65,793.34 C726.01,794.90 723.58,795.92 723.27,795.60 C722.95,795.28 728.05,789.51 734.60,782.76 C749.56,767.35 761.73,751.50 769.73,737.00 C784.72,709.84 793.08,689.32 800.47,661.50 C801.35,658.20 802.50,654.12 803.03,652.43 C803.56,650.74 804.00,647.68 804.00,645.63 C804.00,643.57 804.64,638.88 805.43,635.20 C807.36,626.16 808.29,593.00 806.62,593.00 C805.09,593.00 803.00,598.64 803.00,602.76 C803.00,604.48 802.55,606.16 802.00,606.50 C801.45,606.84 801.00,607.79 801.00,608.62 C801.00,609.45 799.38,613.58 797.39,617.81 C795.41,622.04 792.28,628.72 790.44,632.66 C787.00,640.02 784.46,643.16 785.46,638.83 C785.75,637.55 786.38,634.03 786.86,631.00 C787.34,627.97 788.66,619.88 789.80,613.00 C795.94,575.97 795.29,553.48 787.03,517.00 C784.33,505.09 780.44,493.38 774.17,478.26 C769.48,466.96 768.00,464.86 768.00,469.50 C768.00,470.88 768.39,472.00 768.87,472.00 C769.35,472.00 770.00,473.91 770.33,476.25 C770.65,478.59 771.63,483.42 772.50,487.00 C773.37,490.58 774.32,495.52 774.62,498.00 C774.91,500.48 775.56,503.62 776.06,505.00 C777.67,509.47 780.00,533.89 780.00,546.29 C780.00,560.50 779.02,569.65 774.98,593.00 C774.45,596.03 773.59,601.42 773.06,605.00 C771.96,612.33 769.44,621.18 765.50,631.50 C764.04,635.35 762.58,639.40 762.27,640.50 C761.96,641.60 761.40,642.95 761.03,643.50 C760.65,644.05 759.52,646.75 758.50,649.50 C757.49,652.25 755.56,656.53 754.22,659.00 C752.87,661.47 750.18,666.42 748.24,670.00 C743.54,678.63 732.36,695.37 725.34,704.30 C708.74,725.42 675.12,754.31 652.00,767.33 C645.83,770.80 622.55,782.28 620.16,783.02 C618.69,783.48 615.03,784.82 612.00,786.00 C601.23,790.21 595.41,791.91 588.00,793.01 C579.12,794.33 567.86,796.87 566.64,797.84 C566.01,798.33 563.03,799.01 560.00,799.36 C556.97,799.71 551.12,800.42 547.00,800.95 C537.54,802.16 512.60,802.19 499.50,801.01 C489.95,800.15 470.01,797.07 461.50,795.15 C454.36,793.54 447.55,791.75 445.50,790.96 C444.40,790.53 441.02,789.45 438.00,788.56 C421.24,783.61 394.19,770.19 373.90,756.77 C338.40,733.29 306.21,695.89 287.50,656.39 C280.26,641.13 278.43,636.55 274.44,623.70 C273.04,619.19 271.39,613.92 270.78,612.00 C270.17,610.08 269.33,606.92 268.93,605.00 C268.53,603.08 267.27,597.33 266.13,592.24 C263.24,579.25 261.79,549.98 262.99,529.00 C264.18,508.40 265.26,499.68 268.54,484.50 C269.96,477.90 271.36,471.38 271.64,470.00 C271.92,468.62 272.56,466.60 273.07,465.50 C273.58,464.40 274.85,460.80 275.91,457.50 C286.59,424.11 309.90,386.85 336.91,359.97 C350.53,346.42 360.51,338.19 375.18,328.44 C392.56,316.88 426.99,300.67 439.01,298.38 C440.93,298.02 442.95,297.39 443.50,296.99 C445.20,295.75 451.75,293.88 459.29,292.49 C463.25,291.75 471.45,290.14 477.50,288.89 C487.35,286.86 491.26,286.63 515.00,286.67 C535.11,286.71 543.79,287.12 551.00,288.38 C560.53,290.06 579.20,294.22 586.28,296.25 C588.59,296.92 590.42,296.98 590.98,296.42 C591.49,295.91 592.36,292.34 592.91,288.50 C594.79,275.37 597.46,265.00 598.97,265.00 C599.45,265.00 600.16,266.46 600.54,268.25 C600.93,270.04 602.26,273.33 603.50,275.57 C604.75,277.81 606.08,281.07 606.46,282.81 C606.84,284.55 607.57,286.23 608.08,286.55 C608.58,286.86 609.00,287.88 609.01,288.81 C609.01,289.74 609.68,291.79 610.51,293.36 C611.33,294.94 612.00,296.91 612.00,297.75 C612.00,300.49 615.89,305.63 619.23,307.28 C621.03,308.18 627.67,311.38 634.00,314.41 C640.33,317.44 650.34,322.82 656.25,326.37 C662.16,329.92 667.20,332.48 667.46,332.07 C668.02,331.15 661.93,321.07 657.33,315.33 C653.36,310.37 652.95,308.37 656.25,310.13 C661.54,312.94 683.78,335.23 694.00,347.97 C695.92,350.37 697.96,352.82 698.53,353.41 C699.10,354.01 702.43,358.49 705.93,363.36 C709.43,368.24 714.48,374.72 717.15,377.77 C719.82,380.82 722.00,383.84 722.00,384.49 C722.00,385.14 719.77,387.43 717.04,389.59 C714.32,391.74 712.21,393.94 712.37,394.48 C712.52,395.01 715.21,396.81 718.34,398.48 C729.51,404.42 738.14,412.67 748.18,427.00 C753.03,433.92 758.99,444.75 759.00,446.64 C759.00,448.38 765.16,450.42 774.26,451.69 C776.32,451.98 778.26,452.61 778.57,453.11 C778.87,453.60 779.92,454.00 780.89,454.00 C783.04,454.00 797.66,460.26 799.26,461.86 C799.89,462.49 800.78,463.00 801.25,463.00 C802.30,463.00 813.69,470.55 816.60,473.18 C819.10,475.42 819.36,475.19 824.04,466.50 C830.41,454.67 842.64,441.27 850.89,437.05 C852.95,436.00 855.08,434.55 855.63,433.82 C856.18,433.10 857.45,427.33 858.47,421.00 C859.48,414.67 860.64,408.83 861.03,408.00 C861.43,407.17 863.23,402.67 865.05,398.00 C866.86,393.33 869.61,387.43 871.17,384.89 C872.73,382.35 874.00,379.99 874.00,379.64 C874.00,379.29 872.04,379.00 869.65,379.00 C866.78,379.00 864.78,378.41 863.74,377.25 C862.13,375.46 855.00,360.68 852.29,353.50 C851.46,351.30 850.16,348.08 849.39,346.35 C848.63,344.62 848.00,342.50 848.00,341.66 C848.00,340.81 847.58,339.86 847.08,339.55 C846.57,339.23 845.85,337.52 845.48,335.74 C845.11,333.96 844.14,330.25 843.34,327.50 C842.54,324.75 841.48,320.92 841.00,319.00 C839.52,313.14 836.95,294.86 836.72,288.50 C836.42,280.43 835.79,280.53 821.50,290.84 C819.30,292.43 816.49,294.05 815.25,294.43 C813.34,295.03 813.00,294.77 813.00,292.72 C813.00,287.73 816.15,280.29 822.65,269.92 C826.48,263.80 832.59,257.77 837.57,255.19 C840.31,253.78 842.75,246.61 841.15,244.68 C840.51,243.91 834.71,240.05 828.25,236.10 C810.71,225.37 799.90,218.27 798.05,216.28 C797.14,215.30 794.44,211.57 792.04,208.00 C779.04,188.60 754.20,163.12 730.75,145.14 C723.43,139.52 706.46,128.00 705.51,128.00 C705.18,128.00 704.02,127.16 702.92,126.14 C701.10,124.44 668.76,107.90 658.00,103.16 C655.53,102.07 649.67,99.95 645.00,98.44 C640.33,96.92 636.07,95.31 635.55,94.84 C635.03,94.38 633.78,94.00 632.77,94.00 C631.77,94.00 627.47,92.91 623.22,91.58 C610.76,87.67 604.47,86.00 602.21,86.00 C601.05,86.00 597.49,85.27 594.30,84.37 C591.11,83.47 586.81,82.52 584.74,82.26 C582.68,82.00 580.74,81.39 580.43,80.89 C580.13,80.40 577.46,80.00 574.50,80.00 C571.54,80.00 568.84,79.55 568.50,79.00 C568.16,78.45 567.12,78.00 566.19,78.00 C563.42,78.01 570.11,82.92 573.00,83.00 C574.38,83.03 576.37,83.72 577.44,84.53 C578.51,85.34 580.38,86.00 581.61,86.00 C582.84,86.00 585.11,86.63 586.67,87.41 C588.23,88.18 590.85,89.35 592.50,90.01 C600.35,93.15 624.59,104.90 629.19,107.80 C630.67,108.74 634.40,111.07 637.48,113.00 C650.64,121.23 663.40,131.10 679.41,145.44 C698.70,162.72 701.65,165.68 700.61,166.73 C700.20,167.13 698.44,166.63 696.69,165.62 C689.43,161.42 674.09,154.00 672.68,154.00 C671.85,154.00 669.66,153.25 667.83,152.33 C661.75,149.28 661.04,149.00 659.46,149.00 C657.97,149.00 650.48,146.03 646.76,143.96 C642.36,141.52 640.44,143.95 643.87,147.63 C647.19,151.19 659.22,170.11 658.58,170.75 C658.24,171.09 653.13,166.61 647.23,160.79 C641.33,154.96 634.71,148.69 632.52,146.85 C630.33,145.01 627.41,142.52 626.02,141.32 C624.63,140.12 622.46,138.25 621.19,137.15 C619.92,136.06 616.32,133.44 613.19,131.33 C610.06,129.22 607.28,127.23 607.00,126.91 C605.98,125.70 586.37,113.58 580.05,110.25 C559.48,99.42 546.86,93.57 537.50,90.54 C533.10,89.12 528.60,87.55 527.50,87.06 C526.40,86.57 523.03,85.40 520.00,84.46 C516.97,83.52 512.70,82.17 510.50,81.45 C508.30,80.74 500.65,78.75 493.50,77.05 C476.68,73.02 472.95,71.95 470.42,70.43 C467.51,68.68 455.53,65.79 452.79,66.18 C449.49,66.64 449.97,68.44 453.50,68.84 C455.15,69.02 456.95,69.55 457.50,70.00 C458.05,70.45 460.19,71.14 462.26,71.52 C464.33,71.91 466.27,72.63 466.57,73.11 C466.87,73.60 468.55,74.01 470.31,74.03 C472.06,74.05 474.37,74.72 475.44,75.53 C476.51,76.34 477.94,77.00 478.62,77.00 C479.30,77.00 482.93,78.38 486.68,80.06 C490.43,81.75 494.62,83.60 496.00,84.18 C508.77,89.56 540.45,108.76 552.85,118.64 C565.91,129.04 592.58,155.25 593.79,158.86 C594.21,160.14 591.35,160.46 590.83,159.18 C589.87,156.82 565.40,139.57 559.25,136.92 C557.46,136.14 556.00,135.17 556.00,134.76 C556.00,134.34 555.44,133.99 554.75,133.99 C554.06,133.98 549.02,131.73 543.54,128.99 L 533.57 124.00 L 508.54 124.03 C491.20,124.06 481.04,124.51 475.50,125.52 C471.10,126.31 465.25,126.97 462.49,126.98 C459.74,126.99 455.91,127.46 453.99,128.02 C452.07,128.58 447.80,129.47 444.50,130.00 C441.20,130.53 435.35,131.67 431.50,132.53 C427.65,133.39 422.70,134.44 420.50,134.86 C418.30,135.29 414.92,136.35 413.00,137.23 C409.48,138.84 407.97,139.35 396.00,142.94 C353.60,155.65 307.41,179.56 270.58,207.87 C243.72,228.52 216.31,255.92 195.70,282.72 C187.19,293.78 173.23,313.67 171.64,317.00 C170.53,319.31 168.54,322.64 167.35,324.14 C162.46,330.37 145.66,364.89 138.47,383.50 C136.98,387.35 135.38,391.40 134.90,392.50 C133.04,396.79 126.00,419.49 126.00,421.21 C126.00,422.21 125.61,423.81 125.13,424.76 C122.67,429.71 119.54,441.11 118.01,450.69 C117.56,453.55 116.89,456.36 116.53,456.95 C115.77,458.19 114.26,468.78 113.04,481.50 C112.57,486.45 111.69,492.92 111.09,495.89 C109.69,502.79 109.68,560.22 111.07,569.00 C111.64,572.58 112.51,579.33 113.01,584.00 C114.84,601.42 118.56,620.35 121.10,625.24 C121.59,626.19 122.00,627.85 122.00,628.93 C122.00,630.00 122.45,631.16 123.00,631.50 C123.55,631.84 124.00,633.24 124.00,634.62 C124.00,636.99 126.20,645.17 128.01,649.50 C128.47,650.60 129.06,652.62 129.32,654.00 C129.58,655.38 131.86,662.35 134.39,669.50 C136.92,676.65 138.99,683.22 139.00,684.10 C139.00,684.97 139.95,686.55 141.12,687.60 L 143.24 689.50 L 142.37 678.00 C141.24,663.06 141.39,646.15 142.83,627.50 C144.20,609.66 144.95,604.00 145.94,604.00 C146.35,604.00 147.21,608.32 147.86,613.60 C148.51,618.88 149.48,624.03 150.02,625.04 C150.56,626.04 151.00,628.03 151.00,629.45 C151.00,630.86 151.86,633.93 152.92,636.26 C153.97,638.59 155.38,642.30 156.04,644.50 C156.71,646.70 157.65,649.53 158.13,650.80 C158.61,652.06 159.00,653.98 159.00,655.06 C159.00,656.14 159.44,657.81 159.97,658.76 C160.51,659.72 162.15,664.10 163.62,668.50 C165.09,672.90 167.82,680.10 169.69,684.50 C171.57,688.90 173.64,693.84 174.30,695.48 C176.98,702.12 191.53,730.10 196.83,738.81 C202.46,748.06 213.58,764.34 218.78,770.96 C241.68,800.11 259.65,818.31 284.00,837.02 C286.48,838.93 289.40,841.30 290.50,842.31 C292.78,844.38 323.71,865.00 324.55,865.00 C324.85,865.00 327.44,866.47 330.30,868.26 C340.68,874.78 366.07,886.70 384.50,893.72 C386.70,894.55 389.40,895.58 390.50,896.01 C391.60,896.43 394.52,897.32 397.00,897.98 C399.48,898.65 402.98,899.82 404.78,900.60 C406.59,901.37 408.93,902.00 409.97,902.00 C411.02,902.00 412.16,902.45 412.50,903.00 C412.84,903.55 414.42,904.00 416.01,904.00 C417.60,904.00 419.94,904.39 421.20,904.87 C429.26,907.93 432.87,908.77 447.51,910.96 C450.81,911.46 454.78,912.34 456.32,912.93 C457.87,913.52 461.24,914.02 463.82,914.04 C466.39,914.07 470.52,914.55 473.00,915.11 C483.53,917.49 526.22,918.56 544.50,916.90 ZM 549.50 740.85 C552.25,740.28 556.97,739.45 560.00,739.00 C563.03,738.55 568.20,737.44 571.50,736.54 C574.80,735.63 579.08,734.52 581.00,734.08 C593.24,731.23 618.69,719.32 632.67,709.88 C649.52,698.52 665.48,683.78 679.65,666.50 C689.13,654.94 704.29,628.54 707.50,618.00 C707.92,616.62 709.02,613.70 709.96,611.50 C712.35,605.87 714.52,598.73 716.51,590.00 C717.45,585.88 718.60,580.92 719.06,579.00 C721.40,569.29 722.32,536.80 720.68,521.50 C719.30,508.58 714.47,488.29 710.46,478.50 C709.78,476.85 708.63,473.70 707.89,471.50 C705.77,465.18 693.55,441.61 688.83,434.74 C668.36,404.94 642.35,382.22 611.16,366.92 C599.04,360.97 598.97,360.94 589.50,357.41 C576.75,352.64 570.28,351.03 551.50,347.90 C541.28,346.20 536.23,345.97 517.50,346.35 C502.87,346.64 492.65,347.34 487.00,348.44 C482.33,349.34 476.70,350.33 474.50,350.64 C472.30,350.95 470.07,351.61 469.55,352.10 C469.03,352.60 467.52,353.00 466.20,353.00 C464.89,353.00 462.61,353.64 461.15,354.42 C459.69,355.20 455.69,356.67 452.26,357.67 C448.83,358.68 446.01,359.84 446.01,360.25 C446.00,360.66 445.36,361.00 444.58,361.00 C441.42,361.00 420.17,372.27 409.00,379.86 C390.55,392.42 371.20,411.99 357.94,431.50 C350.66,442.22 350.93,441.75 343.73,456.00 C334.32,474.62 326.95,498.95 325.10,517.50 C323.10,537.56 322.80,546.07 323.86,552.26 C324.44,555.69 325.43,563.00 326.05,568.50 C327.63,582.59 329.33,589.94 335.15,608.00 C337.37,614.88 341.02,624.33 343.27,629.00 C347.72,638.27 358.89,657.30 360.19,657.83 C360.63,658.02 361.00,658.61 361.00,659.16 C361.00,662.44 384.96,688.55 396.00,697.30 C399.58,700.13 402.73,702.72 403.00,703.05 C405.47,705.99 432.00,721.55 440.50,725.04 C441.60,725.49 444.30,726.62 446.50,727.53 C454.58,730.91 459.75,732.70 468.00,734.99 C470.48,735.68 474.20,736.86 476.27,737.62 C478.34,738.38 481.64,739.00 483.59,739.00 C485.54,739.00 488.07,739.50 489.22,740.12 C494.12,742.74 537.74,743.26 549.50,740.85 ZM 742.00 291.89 C736.78,289.24 731.80,287.05 730.95,287.03 C730.10,287.01 728.97,286.58 728.45,286.06 C726.42,284.06 708.34,278.80 697.71,277.11 C695.08,276.69 692.17,275.60 691.25,274.68 C689.69,273.12 689.85,272.73 693.54,268.78 C695.72,266.45 697.74,264.31 698.02,264.02 C699.51,262.53 701.84,258.05 702.97,254.50 C704.73,248.97 705.37,248.50 709.19,250.04 C720.71,254.65 736.27,268.01 744.67,280.50 C749.18,287.20 753.24,295.76 752.19,296.34 C751.81,296.56 747.22,294.55 742.00,291.89 ZM 565.52 543.04 C565.19,542.49 564.66,539.67 564.36,536.77 C564.06,533.87 563.18,530.08 562.41,528.35 C561.63,526.62 560.99,524.37 560.99,523.35 C560.97,521.56 558.85,514.57 557.08,510.50 C556.60,509.40 555.23,506.10 554.04,503.18 C550.30,493.97 545.43,487.58 537.47,481.44 C532.85,477.87 521.23,472.00 518.79,472.00 C517.87,472.00 516.88,471.62 516.60,471.16 C515.83,469.91 498.49,465.61 489.69,464.48 C480.57,463.30 483.38,462.08 509.00,456.04 C531.70,450.69 547.39,438.27 555.36,419.33 C561.03,405.87 562.25,401.69 564.30,388.72 C564.98,384.44 565.96,380.92 566.47,380.91 C567.68,380.88 569.97,388.59 569.98,392.78 C569.99,394.59 570.67,397.68 571.50,399.65 C572.33,401.63 573.01,404.20 573.03,405.37 C573.05,406.54 573.72,408.37 574.53,409.44 C575.34,410.51 576.00,412.20 576.00,413.20 C576.00,414.21 576.43,415.81 576.96,416.76 C577.50,417.72 578.82,420.55 579.90,423.05 C583.68,431.79 590.27,439.39 599.27,445.37 C603.92,448.47 608.22,451.00 608.83,451.00 C609.87,451.00 615.46,453.21 619.24,455.12 C620.19,455.60 621.86,456.00 622.94,456.00 C624.02,456.00 625.94,456.42 627.20,456.92 C628.47,457.43 633.21,458.64 637.75,459.61 C648.68,461.95 648.64,462.78 637.50,464.50 C623.84,466.61 600.27,477.24 592.16,484.95 C584.47,492.25 577.23,504.92 573.55,517.50 C572.58,520.80 571.44,524.62 571.00,526.00 C570.56,527.38 569.63,531.78 568.93,535.80 C567.68,542.98 566.73,544.99 565.52,543.04 Z" fill="rgb(253,253,254)"/>
</svg>
