<svg width="26" height="26" viewBox="0 0 26 26" fill="currentColor" xmlns="http://www.w3.org/2000/svg">
<path d="M13 0.000610352C5.82048 0.000610352 0 5.82029 0 13.0001C0 20.1796 5.82048 25.9996 13 25.9996C20.1795 25.9996 26 20.1793 26 12.9998C26 5.8203 20.1795 0.000610352 13 0.000610352ZM18.0033 19.1745C17.7929 19.1745 17.6494 19.1018 17.453 18.9818C15.5688 17.8418 13.2191 17.2427 10.7267 17.2427C9.33544 17.2427 7.93543 17.4216 6.62607 17.6938C6.41331 17.7401 6.14583 17.8218 5.98514 17.8218C5.49168 17.8218 5.16289 17.4301 5.16289 17.0045C5.16289 16.459 5.47741 16.1863 5.8699 16.1115C7.47554 15.7454 9.07457 15.5363 10.7355 15.5363C13.5799 15.5363 16.1151 16.1894 18.2966 17.4969C18.6212 17.6864 18.8112 17.8799 18.8112 18.3612C18.8115 18.8303 18.4304 19.1745 18.0033 19.1745ZM19.4197 15.7338C19.1376 15.7338 18.9603 15.6196 18.7681 15.5081C16.6537 14.2531 13.7226 13.4195 10.5134 13.4195C8.86736 13.4195 7.44647 13.6503 6.27059 13.9635C6.01712 14.0335 5.87519 14.1086 5.63784 14.1086C5.07911 14.1086 4.62239 13.6524 4.62239 13.0894C4.62239 12.5368 4.89066 12.1567 5.43089 12.0045C6.89223 11.6027 8.38501 11.2937 10.5568 11.2937C13.9597 11.2937 17.2516 12.1411 19.8394 13.6899C20.2734 13.9381 20.433 14.2547 20.433 14.7173C20.433 15.2792 19.9847 15.7338 19.4197 15.7338ZM21.0324 11.7322C20.7681 11.7322 20.6109 11.6677 20.3629 11.5319C18.0104 10.121 14.3583 9.34424 10.8272 9.34424C9.06427 9.34424 7.27414 9.52371 5.63414 9.96853C5.44517 10.0158 5.20703 10.1105 4.96784 10.1105C4.27431 10.1105 3.742 9.56177 3.742 8.8685C3.742 8.16175 4.17969 7.7653 4.65173 7.62601C6.50502 7.08023 8.57346 6.82597 10.8221 6.82597C14.6395 6.82597 18.6558 7.61121 21.5893 9.33367C21.9847 9.55807 22.2588 9.89558 22.2588 10.5146C22.2583 11.2229 21.689 11.7322 21.0324 11.7322Z" fill="currentColor"/>
</svg>
